<?xml version="1.0" standalone="no"?>
<!DOCTYPE svg PUBLIC "-//W3C//DTD SVG 1.1//EN" "http://www.w3.org/Graphics/SVG/1.1/DTD/svg11.dtd" >
<svg>
<metadata>
Created by FontForge 20090914 at Fri Apr 20 07:58:51 2018
 By www-data
Copyright (c) 2010 by Svetoslav Simov. All rights reserved.
</metadata>
<defs>
<font id="NexaBold" horiz-adv-x="1533" >
  <font-face 
    font-family="Nexa Bold"
    font-weight="700"
    font-stretch="normal"
    units-per-em="2048"
    panose-1="2 0 0 0 0 0 0 0 0 0"
    ascent="1536"
    descent="-512"
    x-height="1010"
    cap-height="1434"
    bbox="-231 -631 2165 1888"
    underline-thickness="102"
    underline-position="-102"
    unicode-range="U+000D-U+FB02"
  />
<missing-glyph horiz-adv-x="413" 
 />
    <glyph glyph-name=".notdef" horiz-adv-x="413" 
 />
    <glyph glyph-name=".notdef" horiz-adv-x="413" 
 />
    <glyph glyph-name="uni000D" unicode="&#xd;" horiz-adv-x="2048" 
 />
    <glyph glyph-name="space" unicode=" " horiz-adv-x="413" 
 />
    <glyph glyph-name="exclam" unicode="!" horiz-adv-x="608" 
d="M123 147c0 30 6 56.667 18 80s27.667 41 47 53s40.666 20.833 63.999 26.5s46.666 5.66699 69.999 0s44.666 -14.5 63.999 -26.5s35 -29.667 47 -53s18 -50 18 -80c0 -29.333 -6 -55.666 -18 -78.999s-27.667 -41 -47 -53s-40.666 -20.667 -63.999 -26
s-46.666 -5.33301 -69.999 0s-44.666 14 -63.999 26s-35 29.667 -47 53s-18 49.666 -18 78.999zM152 375v1057h268v-1057h-268z" />
    <glyph glyph-name="quotedbl" unicode="&#x22;" horiz-adv-x="888" 
d="M131 881v549h227v-549h-227zM496 881v549h229v-549h-229z" />
    <glyph glyph-name="numbersign" unicode="#" horiz-adv-x="1476" 
d="M29 276v240h217l94 375h-170v235h225l76 308h274l-75 -308h223l78 308h272l-76 -308h148v-237h-207l-96 -373h162v-240h-218l-67 -276h-275l68 276h-225l-68 -276h-272l67 276h-155zM496 502h258l102 405h-258z" />
    <glyph glyph-name="dollar" unicode="$" horiz-adv-x="1591" 
d="M74 311l241 103.002c26.667 -64 79.334 -115.833 158.001 -155.5s162 -59.5 250 -59.5c48 0 92.5 4.16699 133.5 12.5s78.333 21.166 112 38.499s60.167 40.666 79.5 69.999s29 63.333 29 102c0 32.667 -9.5 61.334 -28.5 86.001s-46.167 44.667 -81.5 60
s-72.833 27.833 -112.5 37.5s-85.5 17.5 -137.5 23.5c-38 4 -70.5 8 -97.5 12s-58 9.33301 -93 16s-65.167 13.667 -90.5 21s-52.333 17 -81 29s-53 25.333 -73 40s-39.833 32.167 -59.5 52.5s-35.334 42.666 -47.001 66.999s-21 52.166 -28 83.499
s-10.5 65.666 -10.5 102.999c0 64.667 13.333 122.667 40 174s63 93.5 109 126.5s96.167 59.333 150.5 79s112.833 33.167 175.5 40.5v178h260v-178c46.667 -7.33301 89.334 -17.166 128.001 -29.499s77 -29 115 -50s72.5 -48.5 103.5 -82.5s57.5 -73.667 79.5 -119
l-221 -102c-26.667 44 -73.334 80.833 -140.001 110.5s-135.334 44.5 -206.001 44.5c-44.667 0 -85.667 -3.33301 -123 -10s-71.5 -17.334 -102.5 -32.001s-55.333 -34.667 -73 -60s-26.5 -55.333 -26.5 -90c0 -22 4 -41.667 12 -59s20.333 -32 37 -44s34 -22.167 52 -30.5
s41.333 -15.666 70 -21.999s54.334 -11.166 77.001 -14.499s51 -7 85 -11c40 -4.66699 73.5 -9 100.5 -13s59.5 -9.66699 97.5 -17s70 -15 96 -23s54.833 -18.5 86.5 -31.5s58.167 -27 79.5 -42s42.833 -33.333 64.5 -55s38.834 -45.334 51.501 -71.001s23 -55.167 31 -88.5
s12 -69.666 12 -108.999c0 -66.667 -13.333 -127.834 -40 -183.501s-62.667 -102 -108 -139s-96.833 -66.5 -154.5 -88.5s-118.834 -35.333 -183.501 -40v-204h-260v194c-122 10.667 -230.667 44.834 -326 102.501s-166 140.167 -212 247.5z" />
    <glyph glyph-name="percent" unicode="%" horiz-adv-x="1585" 
d="M58 1138.5c0 40.333 7.16699 79.666 21.5 117.999s34.833 72.666 61.5 102.999s61.667 54.666 105 72.999s91.666 27.5 144.999 27.5s101.666 -9.16699 144.999 -27.5s78.333 -42.666 105 -72.999s47.167 -64.666 61.5 -102.999s21.5 -77.666 21.5 -117.999
s-7.16699 -79.666 -21.5 -117.999s-34.833 -72.666 -61.5 -102.999s-61.667 -54.666 -105 -72.999s-91.666 -27.5 -144.999 -27.5s-101.666 9.16699 -144.999 27.5s-78.333 42.666 -105 72.999s-47.167 64.666 -61.5 102.999s-21.5 77.666 -21.5 117.999zM158 -2l944 1438
h289l-942 -1438h-291zM264 1100.5c5.33301 -26.333 19.5 -48.666 42.5 -66.999s51.167 -27.5 84.5 -27.5s61.5 9.16699 84.5 27.5s37.167 40.666 42.5 66.999s5.33301 52.666 0 78.999s-19.5 48.666 -42.5 66.999s-51.167 27.5 -84.5 27.5s-61.5 -9.16699 -84.5 -27.5
s-37.167 -40.666 -42.5 -66.999s-5.33301 -52.666 0 -78.999zM836 307.5c0 40.333 7.16699 79.666 21.5 117.999s34.833 72.666 61.5 102.999s61.667 54.666 105 72.999s91.666 27.5 144.999 27.5s101.666 -9.16699 144.999 -27.5s78.333 -42.666 105 -72.999
s47.167 -64.666 61.5 -102.999s21.5 -77.666 21.5 -117.999s-7.16699 -79.666 -21.5 -117.999s-34.833 -72.666 -61.5 -102.999s-61.667 -54.666 -105 -72.999s-91.666 -27.5 -144.999 -27.5s-101.666 9.16699 -144.999 27.5s-78.333 42.666 -105 72.999
s-47.167 64.666 -61.5 102.999s-21.5 77.666 -21.5 117.999zM1042 266.5c5.33301 -26.333 19.5 -48.666 42.5 -66.999s51.167 -27.5 84.5 -27.5s61.5 9.16699 84.5 27.5s37.167 40.666 42.5 66.999s5.33301 52.666 0 78.999s-19.5 48.666 -42.5 66.999
s-51.167 27.5 -84.5 27.5s-61.5 -9.16699 -84.5 -27.5s-37.167 -40.666 -42.5 -66.999s-5.33301 -52.666 0 -78.999z" />
    <glyph glyph-name="ampersand" unicode="&#x26;" horiz-adv-x="1484" 
d="M115 436c0 62 20.6602 121.834 61.9932 179.501s94.333 97.5 159 119.5c-60.667 19.333 -108 57.333 -142 114s-51 115.667 -51 177c0.666992 58.667 11.834 112.5 33.501 161.5s50.334 89.667 86.001 122s77.334 59.833 125.001 82.5s96.834 39 147.501 49
s102.334 15 155.001 15s102.834 -4 150.501 -12s94.667 -22 141 -42s86.166 -45 119.499 -75s60.333 -68.667 81 -116s31.334 -100.666 32.001 -159.999h-256c0 42 -13.167 76.5 -39.5 103.5s-59.166 45.833 -98.499 56.5s-84.666 16 -135.999 16
c-50 0 -94 -6.33301 -132 -19s-67.167 -29.334 -87.5 -50.001s-35.333 -42.167 -45 -64.5s-14.167 -44.833 -13.5 -67.5c0 -34 9.66699 -63.833 29 -89.5s44 -45.167 74 -58.5s59.5 -23 88.5 -29s57.167 -9 84.5 -9h672v-213h-119v-209
c0 -45.333 10.667 -82.666 32 -111.999s53.666 -44 96.999 -44v-268c-24 0 -45.667 1.16699 -65 3.5s-40.166 7.5 -62.499 15.5s-42 18.667 -59 32s-33 31.666 -48 54.999s-26.833 50.666 -35.5 81.999c-81.333 -133.333 -218 -200 -410 -200
c-65.333 0 -125.166 4.33301 -179.499 13s-106 23.667 -155 45s-90.333 49 -124 83s-60.334 77.5 -80.001 130.5s-29.834 113.833 -30.501 182.5zM380.993 434.001c0 -48 14.833 -88.499 44.5 -121.499s66.167 -56.167 109.5 -69.5s91.666 -20 144.999 -20
c26.667 0 56 3.66699 88 11s64.333 18.166 97 32.499s59.834 35 81.501 62s32.5 57.5 32.5 91.5v207h-311c-92 0 -162.833 -19.833 -212.5 -59.5s-74.5 -84.167 -74.5 -133.5z" />
    <glyph glyph-name="quotesingle" unicode="'" horiz-adv-x="438" 
d="M92 883v549h227v-549h-227z" />
    <glyph glyph-name="parenleft" unicode="(" horiz-adv-x="708" 
d="M59 674c0 176.667 41.667 346.832 125 510.499s202.333 297.834 357 402.501l125 -168c-114 -90.667 -200.667 -200.5 -260 -329.5s-89 -267.5 -89 -415.5c0 -310 116.333 -556.667 349 -740l-136 -182c-103.333 68 -191 153 -263 255s-124.667 209.167 -158 321.5
s-50 227.5 -50 345.5z" />
    <glyph glyph-name="parenright" unicode=")" horiz-adv-x="727" 
d="M25 1419l125 167.999c154.667 -104.667 273.5 -238.667 356.5 -402s124.5 -333.666 124.5 -510.999c0 -118 -16.667 -233.167 -50 -345.5s-86 -219.5 -158 -321.5s-159.667 -187 -263 -255l-131 187c229.333 180.667 344 425.667 344 735c0 148 -29.5 286.5 -88.5 415.5
s-145.5 238.833 -259.5 329.5z" />
    <glyph glyph-name="asterisk" unicode="*" horiz-adv-x="702" 
d="M-10 1155l57 191l189 -72l-11 192h195l-21 -196l201 76l53 -191l-196 -39l143 -160l-154 -114l-122 178l-121 -178l-156 114l135 160z" />
    <glyph glyph-name="plus" unicode="+" horiz-adv-x="958" 
d="M31 598v227h301v305h248v-305h305v-227h-305v-307h-248v307h-301z" />
    <glyph glyph-name="comma" unicode="," horiz-adv-x="509" 
d="M88 113c0 36 9.99902 65.833 29.999 89.5s44.167 38 72.5 43s56.833 4.16699 85.5 -2.5s53 -22.334 73 -47.001s30 -54.667 30 -90c0 -12.667 -3.5 -30.667 -10.5 -54s-34.167 -107.666 -81.5 -252.999h-142l39 203c-29.333 5.33301 -52.666 17.5 -69.999 36.5
s-26 43.833 -26 74.5z" />
    <glyph glyph-name="hyphen" unicode="-" horiz-adv-x="937" 
d="M72 553v229h755v-229h-755z" />
    <glyph glyph-name="period" unicode="." horiz-adv-x="495" 
d="M76 129c0 26.667 5.5 50.5 16.5 71.5s25.167 37 42.5 48s36.333 19 57 24s41.5 5 62.5 0s40.167 -13 57.5 -24s31.5 -27 42.5 -48s16.5 -44.833 16.5 -71.5s-5.5 -50.5 -16.5 -71.5s-25.167 -37 -42.5 -48s-36.333 -19 -57 -24s-41.5 -5 -62.5 0s-40.167 13 -57.5 24
s-31.5 27 -42.5 48s-16.5 44.833 -16.5 71.5z" />
    <glyph glyph-name="slash" unicode="/" horiz-adv-x="931" 
d="M-25 -168l682 1737h263l-684 -1737h-261z" />
    <glyph glyph-name="zero" unicode="0" horiz-adv-x="1425" 
d="M61 614v207.003c0 103.333 18 196.666 54 279.999s83.5 150.666 142.5 201.999s126.167 90.833 201.5 118.5s152.333 41.5 231 41.5s155.667 -14 231 -42s142.5 -67.5 201.5 -118.5s106.5 -118.333 142.5 -202s54 -176.834 54 -279.501v-207c0 -136 -31 -254 -93 -354
s-139.667 -172.5 -233 -217.5s-194.333 -67.5 -303 -67.5s-209.667 22.333 -303 67s-171 117.167 -233 217.5s-93 218.5 -93 354.5zM330 614.003c0 -62.667 10.333 -119.332 31 -169.999s47.834 -91.667 81.501 -123s72.167 -55.333 115.5 -72s87.5 -25 132.5 -25
s89.167 8.33301 132.5 25s81.833 40.667 115.5 72s60.834 72.333 81.501 123s31 107.334 31 170.001v207c0 62 -10.333 118 -31 168s-47.834 90.5 -81.501 121.5s-72.167 54.833 -115.5 71.5s-87.5 25.167 -132.5 25.5s-89.167 -7.83398 -132.5 -24.501
s-81.833 -40.334 -115.5 -71.001s-60.834 -71.167 -81.501 -121.5s-31 -106.833 -31 -169.5v-207z" />
    <glyph glyph-name="one" unicode="1" horiz-adv-x="755" 
d="M10 1188v246h492v-1205h198v-229h-682v229h215v959h-223z" />
    <glyph glyph-name="two" unicode="2" horiz-adv-x="1341" 
d="M76 0l0.00292969 376.998c0 64 11.167 121 33.5 171s52 90.833 89 122.5s81 57.834 132 78.501s103.333 35.167 157 43.5s110.167 12.5 169.5 12.5c21.333 0 41.666 0.833008 60.999 2.5s41.5 4.5 66.5 8.5s47.5 10.333 67.5 19s38.833 19.5 56.5 32.5
s31.5 29.833 41.5 50.5s15 44.334 15 71.001c0 74.667 -30.167 131.667 -90.5 171s-138.833 59 -235.5 59c-48 0 -93.5 -7.5 -136.5 -22.5s-79 -38.167 -108 -69.5s-43.833 -67.666 -44.5 -108.999h-268c0.666992 58.667 11.667 112.334 33 161.001s50 89.667 86 123
s78 61.5 126 84.5s97.833 39.667 149.5 50s104.5 15.5 158.5 15.5c60 0 117.667 -4.83301 173 -14.5s109.166 -26 161.499 -49s97.666 -51.5 135.999 -85.5s69.166 -77.5 92.499 -130.5s35 -112.167 35 -177.5c0 -70.667 -10.667 -132.334 -32 -185.001
s-49.166 -94.667 -83.499 -126s-77.333 -56.333 -129 -75s-103.5 -31.334 -155.5 -38.001s-110.667 -10 -176 -10c-34.667 0 -68 -2.5 -100 -7.5s-65 -13.833 -99 -26.5s-61.167 -32 -81.5 -58s-30.5 -57.333 -30.5 -94v-123h891v-252h-1161z" />
    <glyph glyph-name="three" unicode="3" horiz-adv-x="1339" 
d="M23 420l271.998 -0.00195312c0 -34.667 10.667 -65.5 32 -92.5s48.666 -47.833 81.999 -62.5s67.166 -25.667 101.499 -33s67.5 -11 99.5 -11c36.667 0 72.834 4 108.501 12s69.834 19.833 102.501 35.5s59 37.667 79 66s30 60.833 30 97.5
c0 128.667 -101.667 193 -305 193h-224v221h207c38.667 0 74.834 2.83301 108.501 8.5s65.334 14.667 95.001 27s53.167 30.166 70.5 53.499s26.333 51 27 83c0 22 -4.83301 43.5 -14.5 64.5s-25.167 41.333 -46.5 61s-52 35.334 -92 47.001s-87.333 17.5 -142 17.5
c-34 0 -67.667 -3.16699 -101 -9.5s-65.166 -16 -95.499 -29s-55 -31.333 -74 -55s-28.5 -51.167 -28.5 -82.5h-270c0 59.333 11.5 113.333 34.5 162s53.167 88.834 90.5 120.501s81 58.167 131 79.5s101.333 36.666 154 45.999s106.334 14 161.001 14
c55.333 0 109.333 -5.16699 162 -15.5s103.5 -27.166 152.5 -50.499s91.667 -51.5 128 -84.5s65.5 -74.167 87.5 -123.5s33.333 -103.333 34 -162c0 -59.333 -18.167 -116.666 -54.5 -171.999s-84.5 -92.333 -144.5 -111c67.333 -22 123 -62.167 167 -120.5
s66 -118.5 66 -180.5c0 -67.333 -12.333 -127.666 -37 -180.999s-56.834 -96.833 -96.501 -130.5s-86.5 -61.5 -140.5 -83.5s-108.167 -37.333 -162.5 -46s-110.833 -13 -169.5 -13c-56.667 0 -111.834 4.66699 -165.501 14s-106.167 25.166 -157.5 47.499
s-96 49.833 -134 82.5s-68.667 74.5 -92 125.5s-35.333 107.833 -36 170.5z" />
    <glyph glyph-name="four" unicode="4" horiz-adv-x="1390" 
d="M63 547l646 885h411v-897h168v-263h-168v-272h-266v272h-766zM369 535h485v663z" />
    <glyph glyph-name="five" unicode="5" horiz-adv-x="1288" 
d="M74 432l268.003 -0.00292969c0 -37.333 9.83301 -69.666 29.5 -96.999s45.834 -48 78.501 -62s66 -24.167 100 -30.5s69.667 -9.5 107 -9.5c34.667 0 68.667 4.33301 102 13s65 21.667 95 39s54.167 41.5 72.5 72.5s27.5 66.833 27.5 107.5
c0.666992 38.667 -7.83301 72.167 -25.5 100.5s-41.834 50 -72.501 65s-63.334 26 -98.001 33s-71.667 10.5 -111 10.5h-543v758h1039v-254h-774v-252h278c79.333 0 152.5 -8.5 219.5 -25.5s127.833 -43.167 182.5 -78.5s97.5 -83.333 128.5 -144s46.167 -131.667 45.5 -213
c0 -63.333 -10.167 -121.666 -30.5 -174.999s-48.166 -98.5 -83.499 -135.5s-76.833 -68.5 -124.5 -94.5s-98.667 -45.167 -153 -57.5s-110.833 -18.5 -169.5 -18.5c-65.333 0 -126 4.66699 -182 14s-109.333 25 -160 47s-93.834 49.833 -129.501 83.5
s-63.834 76.334 -84.501 128.001s-31.334 110.167 -32.001 175.5z" />
    <glyph glyph-name="six" unicode="6" horiz-adv-x="1355" 
d="M59 457l-0.000976562 533.999c0 62 11 119 33 171s51.833 96 89.5 132s81.834 66.667 132.501 92s104.167 44 160.5 56s114.5 18 174.5 18c80 0 154.5 -8.16699 223.5 -24.5s131.167 -41 186.5 -74s98.833 -77.333 130.5 -133s47.5 -119.834 47.5 -192.501h-270
c0 40.667 -15.667 75.834 -47 105.501s-70.333 51.334 -117 65.001s-96.667 20.5 -150 20.5c-86.667 1.33301 -162.5 -20.167 -227.5 -64.5s-97.5 -103.5 -97.5 -177.5v8v-215c30 46 77.333 82.833 142 110.5s127.667 41.5 189 41.5c50 0 98.167 -3.66699 144.5 -11
s92 -18.5 137 -33.5s86 -35.333 123 -61s69.667 -55.5 98 -89.5s50.333 -75 66 -123s23.5 -101 23.5 -159c0 -76 -17.333 -145 -52 -207s-80.5 -112.167 -137.5 -150.5s-120.167 -67.666 -189.5 -87.999s-141 -30.5 -215 -30.5c-75.333 0 -147.833 10.167 -217.5 30.5
s-133.167 49.666 -190.5 87.999s-103.333 88.833 -138 151.5s-52 132.667 -52 210zM327.999 452.999c0.666992 -75.333 32.333 -133.168 95 -173.501s140.667 -60.5 234 -60.5c91.333 0 168.5 20.333 231.5 61s94.5 98.334 94.5 173.001c0 76 -30.5 135.167 -91.5 177.5
s-138.5 63.5 -232.5 63.5c-95.333 0 -174.5 -21 -237.5 -63s-94.167 -101.333 -93.5 -178z" />
    <glyph glyph-name="seven" unicode="7" horiz-adv-x="1167" 
d="M41 1176v258h1053l14 -144l-643 -1290h-311l585 1176h-698z" />
    <glyph glyph-name="eight" unicode="8" horiz-adv-x="1390" 
d="M41 432c1.33301 60.667 20.833 120.001 58.5 178.001s91.167 101 160.5 129c-59.333 32 -104.166 72.833 -134.499 122.5s-45.5 103.167 -45.5 160.5c0 70 15.333 133.167 46 189.5s72.667 102.166 126 137.499s114.5 62.333 183.5 81s142.833 28 221.5 28
c78 0 152.167 -9.5 222.5 -28.5s132.833 -46.167 187.5 -81.5s98 -81.166 130 -137.499s48 -119.166 48 -188.499c0 -54 -15.5 -106.333 -46.5 -157s-76.833 -88.334 -137.5 -113.001c46.667 -18.667 86.834 -46.834 120.501 -84.501s58 -76.5 73 -116.5
s22.833 -79.667 23.5 -119c1.33301 -64.667 -9.16699 -123.5 -31.5 -176.5s-53 -97.167 -92 -132.5s-85.5 -65 -139.5 -89s-110.833 -41.333 -170.5 -52s-122.167 -15.667 -187.5 -15c-64 0.666992 -125.333 6.16699 -184 16.5s-114.834 27.5 -168.501 51.5
s-100 53.5 -139 88.5s-69.833 78.833 -92.5 131.5s-33.334 111.667 -32.001 177zM324 428.001c-1.33301 -58.667 27.999 -109.167 87.999 -151.5s142.333 -63.5 247 -63.5s187.167 21 247.5 63s89.833 92.667 88.5 152c-0.666992 45.333 -16.667 83.833 -48 115.5
s-71.666 54.5 -120.999 68.5s-105 21 -167 21c-58.667 0 -112.5 -7 -161.5 -21s-90 -37 -123 -69s-49.833 -70.333 -50.5 -115zM355.999 1030c2 -60.667 32.499 -109.332 91.499 -145.999s129.5 -55 211.5 -55c85.333 0 156.833 18.167 214.5 54.5s87.5 85.166 89.5 146.499
c2 60 -25.667 108.833 -83 146.5s-131.666 56.5 -222.999 56.5c-95.333 0 -169.833 -20.5 -223.5 -61.5s-79.5 -88.167 -77.5 -141.5z" />
    <glyph glyph-name="nine" unicode="9" horiz-adv-x="1382" 
d="M59 985c0 61.333 11.3271 118.167 33.9941 170.5s53.334 97 92.001 134s83.334 68.5 134.001 94.5s104.334 45.167 161.001 57.5s114.334 18.5 173.001 18.5c75.333 0 147.833 -10.167 217.5 -30.5s133.167 -49.5 190.5 -87.5s103.333 -88.333 138 -151
s52 -132.667 52 -210v-535c0 -62 -11 -119 -33 -171s-51.833 -96 -89.5 -132s-81.667 -66.667 -132 -92s-103.666 -44 -159.999 -56s-114.5 -18 -174.5 -18c-64 0 -124.667 5 -182 15s-111.333 26 -162 48s-94.5 49.167 -131.5 81.5s-66.333 72.333 -88 120
s-32.5 100.834 -32.5 159.501h270c0 -40 16.333 -74.833 49 -104.5s72.834 -51.334 120.501 -65.001s98.167 -20.5 151.5 -20.5c86.667 -1.33301 162.667 20.167 228 64.5s98 103.5 98 177.5v-9v215c-30 -46 -77.5 -82.667 -142.5 -110s-128.167 -41 -189.5 -41
c-50 0 -98.167 3.66699 -144.5 11s-92 18.5 -137 33.5s-86 35.333 -123 61s-69.667 55.5 -98 89.5s-50.333 75 -66 123s-23.5 101 -23.5 159zM327.994 985.001c0 -76 30.335 -135.332 91.002 -177.999s138 -64 232 -64c95.333 0 174.666 21.167 237.999 63.5
s94.666 101.833 93.999 178.5c-0.666992 50.667 -16.5 94 -47.5 130s-70.667 62.333 -119 79s-102.833 25 -163.5 25c-91.333 0 -168.333 -20.333 -231 -61s-94 -98.334 -94 -173.001z" />
    <glyph glyph-name="colon" unicode=":" horiz-adv-x="485" 
d="M92 129c0 36.667 10 67.5 30 92.5s44.167 40.5 72.5 46.5s56.833 6 85.5 0s53 -21.5 73 -46.5s30 -55.833 30 -92.5c0 -26 -5.33301 -49.167 -16 -69.5s-24.5 -35.833 -41.5 -46.5s-35.833 -18.5 -56.5 -23.5s-41.5 -5 -62.5 0s-40 12.833 -57 23.5
s-30.833 26.167 -41.5 46.5s-16 43.5 -16 69.5zM92 723c0 36.667 10 67.5 30 92.5s44.167 40.5 72.5 46.5s56.833 6 85.5 0s53 -21.5 73 -46.5s30 -55.833 30 -92.5c0 -26 -5.33301 -49.167 -16 -69.5s-24.5 -35.833 -41.5 -46.5s-35.833 -18.5 -56.5 -23.5
s-41.5 -5 -62.5 0s-40 12.833 -57 23.5s-30.833 26.167 -41.5 46.5s-16 43.5 -16 69.5z" />
    <glyph glyph-name="semicolon" unicode=";" horiz-adv-x="532" 
d="M88 113c0 36 9.99902 65.833 29.999 89.5s44.167 38 72.5 43s56.833 4.16699 85.5 -2.5s53 -22.334 73 -47.001s30 -54.667 30 -90c0 -12.667 -3.5 -30.667 -10.5 -54s-34.167 -107.666 -81.5 -252.999h-142l39 203c-29.333 5.33301 -52.666 17.5 -69.999 36.5
s-26 43.833 -26 74.5zM91.999 723c0 36.667 10 67.5 30 92.5s44.167 40.5 72.5 46.5s56.833 6 85.5 0s53 -21.5 73 -46.5s30 -55.833 30 -92.5c0 -26 -5.33301 -49.167 -16 -69.5s-24.5 -35.833 -41.5 -46.5s-35.833 -18.5 -56.5 -23.5s-41.5 -5 -62.5 0
s-40 12.833 -57 23.5s-30.833 26.167 -41.5 46.5s-16 43.5 -16 69.5z" />
    <glyph glyph-name="less" unicode="&#x3c;" horiz-adv-x="792" 
d="M39 629v30l471 467l162 -159v-13l-324 -311l324 -309v-12l-162 -160z" />
    <glyph glyph-name="equal" unicode="=" horiz-adv-x="874" 
d="M41 338v225h747v-225h-747zM41 694v228h747v-228h-747z" />
    <glyph glyph-name="greater" unicode="&#x3e;" horiz-adv-x="813" 
d="M80 322v12l323 309l-323 311v13l162 159l471 -467v-30l-471 -467z" />
    <glyph glyph-name="question" unicode="?" horiz-adv-x="1269" 
d="M53 1004c0.666992 73.333 15.834 138.496 45.501 195.496s70 102.833 121 137.5s108.667 60.834 173 78.501s133.5 26.5 207.5 26.5c59.333 0 115.666 -5 168.999 -15s103.666 -26.333 150.999 -49s88 -50.334 122 -83.001s60.667 -73.5 80 -122.5
s28.333 -103.167 27 -162.5c0 -47.333 -7 -90 -21 -128s-31.667 -68.667 -53 -92s-47.166 -45.166 -77.499 -65.499s-58.666 -36.166 -84.999 -47.499l-85 -38c-30.333 -14 -53.5 -26.333 -69.5 -37c-52 -34.667 -78 -98 -78 -190v-11h-270v13
c0.666992 54 5.66699 102.167 15 144.5s20.166 76.166 32.499 101.499s30 48.833 53 70.5s42.333 37.5 58 47.5s37.834 22.333 66.501 37c16 8.66699 37.667 18.667 65 30s49.166 21 65.499 29s33.333 18.333 51 31s30.667 27.834 39 45.501s12.5 38.167 12.5 61.5
c0 37.333 -8 69.5 -24 96.5s-37.833 47.167 -65.5 60.5s-56.167 22.833 -85.5 28.5s-61.666 8.5 -96.999 8.5c-44.667 0 -87 -7.66699 -127 -23s-73.333 -38.666 -100 -69.999s-40.334 -67.666 -41.001 -108.999h-275zM379 153.996c0 34.667 8.16699 64.667 24.5 90
s36.5 43.666 60.5 54.999s50.333 17 79 17s55 -5.66699 79 -17s44.167 -29.666 60.5 -54.999s24.5 -55.333 24.5 -90c0 -34 -8.16699 -63.667 -24.5 -89s-36.5 -43.666 -60.5 -54.999s-50.333 -17 -79 -17s-55 5.66699 -79 17s-44.167 29.666 -60.5 54.999
s-24.5 55 -24.5 89z" />
    <glyph glyph-name="at" unicode="@" horiz-adv-x="1955" 
d="M88 498c0 104.667 15.665 202.004 46.998 292.004s74.166 167.333 128.499 232s117.833 119.834 190.5 165.501s150.834 79.667 234.501 102s170.167 33.5 259.5 33.5c124 0 238.167 -17 342.5 -51s195.666 -83.667 273.999 -149s139.666 -150 183.999 -254
s66.5 -222.333 66.5 -355c0 -164.667 -32.833 -294.834 -98.5 -390.501s-157.834 -143.5 -276.501 -143.5c-22.667 0 -45 3 -67 9s-44 15.667 -66 29s-39.833 33.5 -53.5 60.5s-20.5 58.833 -20.5 95.5c-10.667 -29.333 -28 -56.166 -52 -80.499s-50.5 -43.333 -79.5 -57
s-57.667 -24.167 -86 -31.5s-54.166 -11 -77.499 -11c-149.333 0 -274 47.333 -374 142s-150 215.334 -150 362.001c0 146 50.333 267.5 151 364.5s224.334 145.5 371.001 145.5c56 0 111.833 -15.5 167.5 -46.5s94.834 -68.167 117.501 -111.5l16 104l193 -26v-703
c0 -16 4 -27.667 12 -35s17.333 -9.33301 28 -6c34.667 8.66699 62.5 45.5 83.5 110.5s31.5 138.167 31.5 219.5c0 88 -10.167 166.333 -30.5 235s-48.666 126 -84.999 172s-81.333 83.833 -135 113.5s-112.167 51 -175.5 64s-133.666 19.5 -210.999 19.5
c-62.667 0 -124 -8.33301 -184 -25s-117 -42.334 -171 -77.001s-101.333 -76 -142 -124s-72.834 -106 -96.501 -174s-35.5 -141.333 -35.5 -220c0 -86 12 -163.333 36 -232s55.833 -125.334 95.5 -170.001s86.667 -81.834 141 -111.501s110 -50.834 167 -63.501
s116.833 -19 179.5 -19c116 0 213 23.667 291 71l94 -178c-115.333 -68 -245.666 -102 -390.999 -102c-86 0 -168.833 9.66699 -248.5 29s-156 50.166 -229 92.499s-136.333 94.166 -190 155.499s-96.5 137.333 -128.5 228s-48 190.667 -48 300zM652.998 500.004
c0 -50 10.167 -96.332 30.5 -138.999s52.833 -78 97.5 -106s97.667 -42 159 -42c89.333 0 158.833 28.167 208.5 84.5s74.5 127.166 74.5 212.499c0 81.333 -24.167 148.5 -72.5 201.5s-117.833 79.5 -208.5 79.5c-90 0 -160.667 -29 -212 -87s-77 -126 -77 -204z" />
    <glyph glyph-name="A" unicode="A" 
d="M-47 0l643 1434h295l643 -1434h-295l-121 270h-749l-123 -270h-293zM477 522h533l-267 611z" />
    <glyph glyph-name="B" unicode="B" horiz-adv-x="1398" 
d="M92 0v1434h680c72 0 137.667 -8.33301 197 -25s111.333 -41.5 156 -74.5s79.334 -76.333 104.001 -130s37 -115.834 37 -186.501c0 -58.667 -15.333 -112.5 -46 -161.5s-77.667 -87.5 -141 -115.5c39.333 -12 74.666 -31.333 105.999 -58s55.5 -55.834 72.5 -87.501
s29.833 -62.334 38.5 -92.001s13 -56.834 13 -81.501c0 -77.333 -13.833 -144 -41.5 -200s-66.667 -99.833 -117 -131.5s-106.5 -54.667 -168.5 -69s-132 -21.5 -210 -21.5h-680zM358 252.004h414c30.667 0 60.5 2.83301 89.5 8.5s57.5 14.5 85.5 26.5
s50.5 29.833 67.5 53.5s25.5 51.5 25.5 83.5c0 40.667 -14.833 76.5 -44.5 107.5s-64.5 53.667 -104.5 68s-79.667 21.5 -119 21.5h-414v-369zM358 858.004h414.002c79.333 0 136.666 14.333 171.999 43s53 65.667 53 111c0 18 -3.83301 36.5 -11.5 55.5
s-19.667 37.833 -36 56.5s-39.833 34 -70.5 46s-66.334 18 -107.001 18h-414v-330z" />
    <glyph glyph-name="C" unicode="C" horiz-adv-x="1351" 
d="M59 707l-0.00292969 7.99805c0 74 9.33301 145.667 28 215c19.333 72 49.5 140.333 90.5 205s90.833 121.167 149.5 169.5s130.167 86.666 214.5 114.999s176.833 42.5 277.5 42.5c98.667 0 193 -18.5 283 -55.5s171.333 -91.5 244 -163.5l-181 -174
c-46 44.667 -99 78.334 -159 101.001s-122.333 34 -187 34c-83.333 0 -157.5 -14.5 -222.5 -43.5s-116.5 -67.5 -154.5 -115.5c-38.667 -48.667 -68 -101.667 -88 -159c-19.333 -56 -28.666 -113.667 -27.999 -173v-6c0.666992 -62 10.334 -121 29.001 -177
s46.834 -107.5 84.501 -154.5s89.167 -84.5 154.5 -112.5s140.333 -42 225 -42c64 0 128.667 12.833 194 38.5s121 61.5 167 107.5l184 -187c-144 -142 -325.667 -213 -545 -213c-103.333 0 -197.5 13.833 -282.5 41.5s-156.5 64.834 -214.5 111.501
s-107 101.834 -147 165.501s-69.167 130.667 -87.5 201s-27.833 143.833 -28.5 220.5z" />
    <glyph glyph-name="D" unicode="D" horiz-adv-x="1439" 
d="M82 0l-0.000976562 1434h563c95.333 0 182.833 -13.167 262.5 -39.5s146.834 -61.833 201.501 -106.5s101.167 -97.334 139.5 -158.001s66.5 -124.5 84.5 -191.5s27.667 -136.833 29 -209.5v-16c0 -68 -8 -134.333 -24 -199c-17.333 -69.333 -44.833 -135.333 -82.5 -198
s-84 -117.334 -139 -164.001s-123 -83.667 -204 -111s-170.167 -41 -267.5 -41h-563zM349.999 260.002l295 -0.000976562c78.667 0 148 13.5 208 40.5s107.333 63.167 142 108.5c35.333 44.667 61 94.334 77 149.001c15.333 50 22.666 103 21.999 159v14
c-1.33301 58 -11.166 112.833 -29.499 164.5s-45 99 -80 142s-81.667 77.167 -140 102.5s-124.833 38 -199.5 38h-295v-918z" />
    <glyph glyph-name="E" unicode="E" horiz-adv-x="1277" 
d="M96 0v1434h1073v-263h-804v-329h776v-252h-776v-324h804v-266h-1073z" />
    <glyph glyph-name="F" unicode="F" horiz-adv-x="1216" 
d="M100 0v1432h1030v-261h-759v-391h719v-250h-719v-530h-271z" />
    <glyph glyph-name="G" unicode="G" horiz-adv-x="1492" 
d="M43 698c0 102.667 16.1719 200 48.5049 292s79 174.333 140 247s140.5 130.5 238.5 173.5s208.333 64.5 331 64.5c98 0 193 -18.833 285 -56.5s174.333 -92.167 247 -163.5l-168 -172c-47.333 45.333 -103.833 80.666 -169.5 105.999s-130.5 38 -194.5 38
c-100 0 -187.833 -23.667 -263.5 -71s-133 -110.833 -172 -190.5s-58.5 -168.834 -58.5 -267.501c0 -48.667 5.66699 -95.5 17 -140.5s29.666 -88.333 54.999 -130s56.666 -77.667 93.999 -108s84.166 -54.666 140.499 -72.999s118.833 -27.5 187.5 -27.5
c60 0 115.333 8.5 166 25.5s103 46.833 157 89.5v254h-366v241h614v-604c-73.333 -84.667 -156.333 -148.834 -249 -192.501s-200 -65.5 -322 -65.5c-104.667 0 -199.834 13.333 -285.501 40s-157.334 62.834 -215.001 108.501s-106.167 99.834 -145.5 162.501
s-67.833 129 -85.5 199s-26.5 143.667 -26.5 221z" />
    <glyph glyph-name="H" unicode="H" horiz-adv-x="1499" 
d="M102 -2v1434h271v-605h704v605h269v-1434h-269v580h-704v-580h-271z" />
    <glyph glyph-name="I" unicode="I" horiz-adv-x="524" 
d="M102 0v1434h269v-1434h-269z" />
    <glyph glyph-name="J" unicode="J" horiz-adv-x="1456" 
d="M43 596l266 -0.00292969c0 -247.333 121 -371 363 -371c118 0 207.5 35.833 268.5 107.5s91.5 164.834 91.5 279.501v570h-432v252h703v-822c0 -124 -24.833 -234.167 -74.5 -330.5s-122.667 -172.166 -219 -227.499s-208.833 -83 -337.5 -83
c-92 0 -176.333 13.667 -253 41s-143 66.833 -199 118.5s-99.5 117.334 -130.5 197.001s-46.5 169.167 -46.5 268.5z" />
    <glyph glyph-name="K" unicode="K" horiz-adv-x="1341" 
d="M100 0v1434h271v-607l544 607h336v-9l-637 -686l691 -723v-16h-334l-600 635v-635h-271z" />
    <glyph glyph-name="L" unicode="L" horiz-adv-x="1198" 
d="M100 0v1434h271v-1184h737v-250h-1008z" />
    <glyph glyph-name="M" unicode="M" horiz-adv-x="1773" 
d="M102 -2v1434h312l448 -617l449 617h309v-1434h-270v1040l-467 -622h-54l-456 624v-1042h-271z" />
    <glyph glyph-name="N" unicode="N" horiz-adv-x="1460" 
d="M121 0v1434h219l702 -889v891h271v-1436h-168v-2l-754 969v-967h-270z" />
    <glyph glyph-name="O" unicode="O" horiz-adv-x="1607" 
d="M37 707c0 76.667 9.50195 151.17 28.502 223.503s48.5 140.666 88.5 204.999s88.5 120.666 145.5 168.999s126.333 86.666 208 114.999s170.5 42.5 266.5 42.5s184.667 -14.167 266 -42.5s150.666 -66.666 207.999 -114.999s106 -104.5 146 -168.5s69.333 -132 88 -204
c18 -70 27 -141.667 27 -215v-8c-0.666992 -76 -10.334 -149.333 -29.001 -220s-47.667 -137.834 -87 -201.501s-87 -119.167 -143 -166.5s-124.833 -84.833 -206.5 -112.5s-171.5 -41.5 -269.5 -41.5s-187.833 13.667 -269.5 41s-151 64.333 -208 111
s-105.333 101.5 -145 164.5s-68.667 130.167 -87 201.5s-27.5 145.333 -27.5 222zM303.002 702.003c1.33301 -49.333 7.50293 -96.499 18.5029 -141.499s28.667 -88.833 53 -131.5s54 -79.667 89 -111s79.167 -56.333 132.5 -75s112.666 -28 177.999 -28
s124.666 9.5 177.999 28.5s97.5 44.333 132.5 76s64.5 68.834 88.5 111.501s41.5 86.667 52.5 132s16.833 92.666 17.5 141.999v9c-0.666992 46.667 -5.66699 92.667 -15 138c-10.667 48 -28 94 -52 138s-53.833 82.833 -89.5 116.5s-80.334 60.5 -134.001 80.5
s-113.167 30 -178.5 30s-125 -10.167 -179 -30.5s-99 -47.333 -135 -81s-66.333 -72.834 -91 -117.501s-42.334 -91 -53.001 -139c-9.33301 -42.667 -13.666 -86 -12.999 -130v-17z" />
    <glyph glyph-name="P" unicode="P" horiz-adv-x="1384" 
d="M100 0l-0.000976562 1434c74.667 0 187.334 0.333008 338.001 1s263.334 1 338.001 1c84.667 0 161.167 -14.5 229.5 -43.5s123.5 -67.333 165.5 -115s74.333 -101.834 97 -162.501c23.333 -61.333 35 -124.333 35 -189c-0.666992 -62.667 -12.334 -123.667 -35.001 -183
c-22.667 -60.667 -55 -114.834 -97 -162.501s-97.167 -86 -165.5 -115s-144.833 -43.5 -229.5 -43.5h-405v-422h-271zM370.999 670.002l405 -0.00195312c42 0 79.833 7.33301 113.5 22s60.834 33.834 81.501 57.501s36.5 50.667 47.5 81s16.5 61.5 16.5 93.5
s-5.66699 63.167 -17 93.5s-27.333 57.333 -48 81s-47.834 42.834 -81.501 57.501s-71.167 22 -112.5 22h-405v-508z" />
    <glyph glyph-name="Q" unicode="Q" horiz-adv-x="1601" 
d="M33 719l-0.00195312 8c0 73.333 9 144.333 27 213c18 72 46.833 140.167 86.5 204.5s88 120.333 145 168s126.5 85.5 208.5 113.5s172 42 270 42s187.667 -13.667 269 -41s150 -64.166 206 -110.499s103.667 -101 143 -164s68.333 -129.5 87 -199.5
s28.667 -142.667 30 -218v-12c0 -174.667 -44.333 -326.334 -133 -455.001l170 -168l-190 -190l-174 172c-111.333 -71.333 -247.333 -107 -408 -107c-98.667 0 -189.167 13.833 -271.5 41.5s-151.666 65.167 -207.999 112.5s-104.166 103 -143.499 167s-68 131.5 -86 202.5
s-27.333 144.5 -28 220.5zM298.998 713c0.666992 -48 7.33203 -95.165 19.999 -141.498s32 -90.5 58 -132.5s57.167 -78.833 93.5 -110.5s80.333 -56.834 132 -75.501s107.5 -28 167.5 -28c78 0 148.167 15.333 210.5 46s112.333 71 150 121s65.834 105.333 84.501 166
c16.667 53.333 25 107.333 25 162c0 7.33301 -0.333008 15 -1 23c-2 48.667 -8.5 95.167 -19.5 139.5s-28.5 87.666 -52.5 129.999s-53.333 79 -88 110s-78.5 55.833 -131.5 74.5s-112.167 28 -177.5 28c-80.667 0 -152.5 -15.167 -215.5 -45.5s-112.667 -70.5 -149 -120.5
s-63.5 -104.333 -81.5 -163c-16.667 -55.333 -25 -112 -25 -170v-13z" />
    <glyph glyph-name="R" unicode="R" horiz-adv-x="1382" 
d="M102 0l0.000976562 1436c76 0 189.667 -0.333008 341 -1s265 -1 341 -1c82 -0.666992 156.167 -14.167 222.5 -40.5s120.666 -61.5 162.999 -105.5s74.666 -94.333 96.999 -151s33.5 -116.334 33.5 -179.001c0 -52 -6.33301 -100.833 -19 -146.5
s-32.5 -89.334 -59.5 -131.001s-64.667 -77.5 -113 -107.5s-105.166 -51.667 -170.499 -65l434 -490v-18h-321l-418 479h-260v-479h-271zM373.001 723.002h410.999c80.667 0 141.834 22.333 183.501 67s62.5 98.667 62.5 162s-21 117.5 -63 162.5s-103 67.5 -183 67.5h-411
v-459z" />
    <glyph glyph-name="S" unicode="S" horiz-adv-x="1353" 
d="M18 315l225.997 116.999c30 -75.333 81.5 -132 154.5 -170s155.833 -57 248.5 -57c44 0 85.167 4 123.5 12s73.333 20.167 105 36.5s56.5 38.833 74.5 67.5s27 61.667 27 99c0 117.333 -110.667 187.666 -332 210.999c-46 5.33301 -87.333 11.333 -124 18
s-75 15.667 -115 27s-75.333 24.333 -106 39s-60.167 33 -88.5 55s-51.5 46.667 -69.5 74s-32.5 59.833 -43.5 97.5s-16.5 78.834 -16.5 123.501c0 70.667 16.333 133.5 49 188.5s76.167 98.667 130.5 131s113.333 56.666 177 72.999s129.834 24.833 198.501 25.5
c281.333 0 469 -95 563 -285l-215 -111c-26 43.333 -70.5 80.833 -133.5 112.5s-131.833 47.5 -206.5 47.5c-96.667 0 -170.334 -17.667 -221.001 -53s-76 -81 -76 -137c0 -30 8.16699 -55.833 24.5 -77.5s40.5 -39.167 72.5 -52.5s65 -23.666 99 -30.999
s75.333 -13.666 124 -18.999c46.667 -6 88.834 -12.333 126.501 -19s77.167 -16 118.5 -28s77.5 -25.667 108.5 -41s61 -34.5 90 -57.5s52.833 -49 71.5 -78s33.667 -63.167 45 -102.5s17 -83 17 -131c0 -62 -10.667 -118.5 -32 -169.5s-50.666 -94.167 -87.999 -129.5
s-81.5 -65 -132.5 -89s-105.667 -41.5 -164 -52.5s-120.166 -16.5 -185.499 -16.5c-76 0 -145.167 6.16699 -207.5 18.5s-120.5 32 -174.5 59s-101.5 63.5 -142.5 109.5s-74.5 101 -100.5 165z" />
    <glyph glyph-name="T" unicode="T" horiz-adv-x="1259" 
d="M16 1188v246h1180v-246h-455v-1188h-270v1188h-455z" />
    <glyph glyph-name="U" unicode="U" horiz-adv-x="1521" 
d="M100 610v822h269v-822c0 -126.667 33.167 -224.167 99.5 -292.5s156.5 -102.5 270.5 -102.5c110.667 0 196.834 35 258.501 105s92.5 166.667 92.5 290v822h268v-822c0 -104 -15.333 -196.833 -46 -278.5s-73.834 -148.834 -129.501 -201.501
s-121.167 -92.667 -196.5 -120s-158.333 -41 -249 -41c-87.333 0 -169 13.333 -245 40s-143.333 65.834 -202 117.501s-105 119 -139 202s-51 176.833 -51 281.5z" />
    <glyph glyph-name="V" unicode="V" horiz-adv-x="1540" 
d="M2 1434h303l432 -1117l434 1117h304l-596 -1440h-281z" />
    <glyph glyph-name="W" unicode="W" horiz-adv-x="2230" 
d="M10 1434h303l338 -1035l348 1035h177l358 -1035l328 1035h303l-516 -1434h-230l-178 451l-151 452l-150 -457l-174 -446h-229z" />
    <glyph glyph-name="X" unicode="X" horiz-adv-x="1443" 
d="M45 0v8l498 717l-484 696v13h297l359 -535l358 535h297v-13l-485 -696l499 -717v-8h-303l-366 539l-367 -539h-303z" />
    <glyph glyph-name="Y" unicode="Y" horiz-adv-x="1429" 
d="M18 1421v13h322l365 -592l380 592h326v-13l-571 -829v-592h-271v592z" />
    <glyph glyph-name="Z" unicode="Z" horiz-adv-x="1200" 
d="M16 0v156l727 1024h-708v254h1102v-127l-744 -1051h744v-256h-1121z" />
    <glyph glyph-name="bracketleft" unicode="[" horiz-adv-x="638" 
d="M100 -219v1818h494v-221h-242v-1372h242v-225h-494z" />
    <glyph glyph-name="backslash" unicode="\" horiz-adv-x="935" 
d="M-10 1569h262l682 -1737h-260z" />
    <glyph glyph-name="bracketright" unicode="]" horiz-adv-x="661" 
d="M16 6h242v1372h-242v221h494v-1818h-494v225z" />
    <glyph glyph-name="asciicircum" unicode="^" horiz-adv-x="1210" 
d="M2 682v12l487 744h158l504 -742v-14h-274l-308 471l-309 -471h-258z" />
    <glyph glyph-name="underscore" unicode="_" horiz-adv-x="985" 
d="M-23 -6h967v-219h-967v219z" />
    <glyph glyph-name="grave" unicode="`" horiz-adv-x="485" 
d="M-14 1421v11h295l151 -279v-12h-221z" />
    <glyph glyph-name="a" unicode="a" horiz-adv-x="1251" 
d="M27 506c0 112.667 23.501 209.499 70.501 290.499s109.833 140.833 188.5 179.5c77.333 38.667 164.666 58 261.999 58h5c68 0 131.5 -14.833 190.5 -44.5s102.5 -69.5 130.5 -119.5l9 140h239v-1010h-235l-13 147c-26.667 -55.333 -72 -98.5 -136 -129.5
s-127.667 -47.167 -191 -48.5h-5c-98.667 0.666992 -186 20.334 -262 59.001c-77.333 40 -138.833 100.833 -184.5 182.5s-68.5 180.167 -68.5 295.5zM276.001 505.999c0 -94 28.333 -168.671 85 -224.004s128 -83 214 -83c47.333 0 90.166 8.83301 128.499 26.5
s69.333 40.834 93 69.501s41.834 61.334 54.501 98.001s19 74 19 112s-6.33301 75.333 -19 112s-30.834 69.334 -54.501 98.001s-54.667 51.834 -93 69.501s-81.166 26.5 -128.499 26.5c-86 0 -157.333 -27.333 -214 -82s-85 -129 -85 -223z" />
    <glyph glyph-name="b" unicode="b" horiz-adv-x="1280" 
d="M82 0l-0.00292969 1432h250v-560c27.333 48.667 74.833 87.834 142.5 117.501s130.834 44.5 189.501 44.5c152.667 0 276.5 -45.833 371.5 -137.5s142.5 -221.834 142.5 -390.501c0 -108 -22.833 -202.5 -68.5 -283.5s-107.667 -142.167 -186 -183.5
s-167.166 -62 -266.499 -62c-147.333 0 -255.666 54 -324.999 162l-17 -139h-233zM347.997 506c0 -88.667 28.5 -160.334 85.5 -215.001s126.167 -82 207.5 -82s149.5 27.833 204.5 83.5s82.5 126.834 82.5 213.501c0 88.667 -27.333 160 -82 214s-123 81 -205 81
c-80.667 0 -149.667 -27.667 -207 -83s-86 -126 -86 -212z" />
    <glyph glyph-name="c" unicode="c" horiz-adv-x="976" 
d="M23 504c0 87.333 14.168 165.334 42.501 234.001s67 124.667 116 168s105.5 76.166 169.5 98.499s133.333 33.5 208 33.5c73.333 0 138.833 -11.5 196.5 -34.5s113.834 -61.167 168.501 -114.5l-158 -166c-59.333 53.333 -127 80 -203 80
c-84.667 0 -154.334 -28 -209.001 -84s-82 -127.667 -82 -215c0 -92.667 27.333 -165 82 -217s123 -78 205 -78c91.333 0 165 28 221 84l168 -164c-57.333 -56.667 -117.333 -97.5 -180 -122.5s-132.334 -37.5 -209.001 -37.5c-74 0 -143.167 11.333 -207.5 34
s-121 55.667 -170 99s-87.667 99.333 -116 168s-42.5 146.667 -42.5 234z" />
    <glyph glyph-name="d" unicode="d" horiz-adv-x="1265" 
d="M35 506c0 168.667 47.499 298.834 142.499 390.501s218.833 137.5 371.5 137.5c58.667 0 121.834 -14.833 189.501 -44.5s115.167 -68.834 142.5 -117.501v560h249v-1432h-233l-16 139c-69.333 -108 -178 -162 -326 -162c-152 0 -276.667 47.5 -374 142.5
s-146 223.833 -146 386.5zM284.999 506c0 -86.667 27.333 -157.834 82 -213.501s122.667 -83.5 204 -83.5s150.5 27.333 207.5 82s85.5 126.334 85.5 215.001c0 86 -28.667 156.667 -86 212s-126.333 83 -207 83c-82 0 -150.167 -26.833 -204.5 -80.5
s-81.5 -125.167 -81.5 -214.5z" />
    <glyph glyph-name="e" unicode="e" horiz-adv-x="1193" 
d="M37 512c0 155.333 48.833 282.167 146.5 380.5s227.5 147.5 389.5 147.5c174 0 307 -53.333 399 -160c76.667 -88.667 115.334 -210.667 116.001 -366c0 -31.333 -1.66699 -64 -5 -98h-788c8 -64 38.667 -115.833 92 -155.5s123 -59.5 209 -59.5
c48.667 0 99 8.66699 151 26s91.667 40 119 68l160 -158c-50.667 -53.333 -115.334 -94 -194.001 -122s-158.667 -42 -240 -42c-172 0 -307.5 48.833 -406.5 146.5s-148.5 228.5 -148.5 392.5zM299 623.001h545c-8 64 -35.333 112.667 -82 146s-106.667 50 -180 50
c-69.333 0 -129.333 -16.667 -180 -50s-85 -82 -103 -146z" />
    <glyph glyph-name="f" unicode="f" horiz-adv-x="825" 
d="M-25 776l-0.000976562 219.002h189v68c0 65.333 10.5 123.666 31.5 174.999s49.5 92.666 85.5 123.999s76.667 55.166 122 71.499s94 24.5 146 24.5c90 0 177.333 -27.333 262 -82l-92 -186c-53.333 35.333 -104.666 53 -153.999 53
c-45.333 0 -81.833 -15.167 -109.5 -45.5s-41.5 -75.166 -41.5 -134.499v-68h297v-219h-297v-776h-250v776h-189z" />
    <glyph glyph-name="g" unicode="g" horiz-adv-x="1130" 
d="M31 -180l248.001 0.00195312c0 -64 25.667 -116.167 77 -156.5s113.666 -60.5 186.999 -60.5c74 0 135.167 19.333 183.5 58s72.5 91.667 72.5 159c0 44 -12.833 81.833 -38.5 113.5s-57.334 54.5 -95.001 68.5s-78.5 21 -122.5 21c-158 0 -282.833 45.167 -374.5 135.5
s-137.5 214.166 -137.5 371.499c0 102 23 192.333 69 271s107.667 138.5 185 179.5s163.333 61.5 258 61.5c97.333 0 174.333 -19 231 -57l100 127l185 -139l-113 -144c71.333 -80.667 107 -180.334 107 -299.001c0 -34 -3.5 -68 -10.5 -102s-18.167 -68.5 -33.5 -103.5
s-37.5 -67.667 -66.5 -98s-63.167 -54.5 -102.5 -72.5c78 -39.333 132.333 -86.833 163 -142.5s46 -119.5 46 -191.5c0 -137.333 -47.167 -246.833 -141.5 -328.5s-215.833 -122.5 -364.5 -122.5c-97.333 0 -184.666 18.5 -261.999 55.5s-138.333 90 -183 159
s-67 147.833 -67 236.5zM279.001 530.002c0 -85.333 25.1689 -153.334 75.502 -204.001s113.166 -76 188.499 -76c74 0 136.167 25.5 186.5 76.5s75.5 118.833 75.5 203.5s-25.333 153.334 -76 206.001s-112.667 79 -186 79c-74.667 0 -137.334 -26 -188.001 -78
s-76 -121 -76 -207z" />
    <glyph glyph-name="h" unicode="h" horiz-adv-x="1189" 
d="M82 0l0.000976562 1434h250v-562c78 101.333 183 152 315 152c139.333 0 243.166 -43.5 311.499 -130.5s102.5 -207.5 102.5 -361.5v-532h-250v530c0 88 -20.667 153.833 -62 197.5s-97 65.5 -167 65.5c-72.667 0 -132.5 -26.833 -179.5 -80.5
s-70.5 -119.167 -70.5 -196.5v-516h-250z" />
    <glyph glyph-name="i" unicode="i" horiz-adv-x="475" 
d="M59 1294c0 26.667 5.49902 50.5 16.499 71.5s25.167 37 42.5 48s36.333 19.167 57 24.5c10.667 2.66699 21 4 31 4c10.667 0 21.334 -1.33301 32.001 -4c21.333 -5.33301 40.5 -13.5 57.5 -24.5s31 -27 42 -48s16.5 -44.833 16.5 -71.5s-5.5 -50.5 -16.5 -71.5
s-25.167 -37 -42.5 -48s-36.333 -19 -57 -24s-41.5 -5 -62.5 0s-40.167 13 -57.5 24s-31.5 27 -42.5 48s-16.5 44.833 -16.5 71.5zM81.999 0h250v1014h-250v-1014z" />
    <glyph glyph-name="j" unicode="j" horiz-adv-x="458" 
d="M-231 -559c69.333 -45.333 143.666 -68 222.999 -68c110.667 0 194.334 36.5 251.001 109.5s85 173.833 85 302.5v1229h-248v-1229c0 -60 -7 -104.167 -21 -132.5s-40.333 -43.5 -79 -45.5h-10c-33.333 0 -70.333 9.33301 -111 28zM57 1296
c0 26.667 5.49805 50.5 16.498 71.5s25.167 37 42.5 48s36.333 19.167 57 24.5c10 2 20.333 3 31 3s21.334 -1 32.001 -3c20.667 -5.33301 39.667 -13.5 57 -24.5s31.5 -27 42.5 -48s16.5 -44.833 16.5 -71.5s-5.5 -50.5 -16.5 -71.5s-25.167 -37 -42.5 -48
s-36.333 -19.167 -57 -24.5c-10.667 -2 -21.167 -3 -31.5 -3s-20.5 1 -30.5 3c-21.333 5.33301 -40.666 13.5 -57.999 24.5s-31.5 27 -42.5 48s-16.5 44.833 -16.5 71.5z" />
    <glyph glyph-name="k" unicode="k" horiz-adv-x="1054" 
d="M76 0v1432h250v-828l340 406h299v-15l-412 -460l469 -517v-18h-301l-395 457v-457h-250z" />
    <glyph glyph-name="l" unicode="l" horiz-adv-x="466" 
d="M82 0v1432h248v-1432h-248z" />
    <glyph glyph-name="m" unicode="m" horiz-adv-x="1835" 
d="M82 0l-0.00292969 1012h231l19 -123c24.667 47.333 61.667 82.333 111 105s101 34 155 34c66 0 125.667 -15 179 -45s93.333 -77.667 120 -143c42.667 67.333 91.834 114.833 147.501 142.5s119.167 41.5 190.5 41.5c141.333 0 248 -41.333 320 -124s108 -201 108 -355
v-545h-250v545c0 72 -15.667 131 -47 177s-79 69 -143 69c-65.333 0 -118.166 -24.333 -158.499 -73s-60.5 -107.667 -60.5 -177v-541h-250v541c0 70.667 -18.167 130.667 -54.5 180s-87.166 74 -152.499 74c-64.667 0 -116.667 -24.833 -156 -74.5s-59 -109.5 -59 -179.5
v-541h-250z" />
    <glyph glyph-name="n" unicode="n" horiz-adv-x="1208" 
d="M76 0l-0.00195312 1012h223l16 -138c103.333 101.333 214 152 332 152c123.333 0 225.5 -44.167 306.5 -132.5s121.5 -209.5 121.5 -363.5v-530h-250v528c0 80 -21.167 145.167 -63.5 195.5s-102.166 75.5 -179.499 75.5c-75.333 0 -137.166 -27.5 -185.499 -82.5
s-72.5 -121.833 -72.5 -200.5v-516h-248z" />
    <glyph glyph-name="o" unicode="o" horiz-adv-x="1175" 
d="M35 504c0 96.667 20.834 184.666 62.501 263.999s102.5 142.833 182.5 190.5s172.333 71.5 277 71.5s197.5 -23.833 278.5 -71.5s142.833 -111.167 185.5 -190.5s64 -167.333 64 -264c0 -97.333 -20.667 -185.666 -62 -264.999s-102.333 -142.833 -183 -190.5
s-174.334 -71.5 -281.001 -71.5c-106 0 -199.333 23.833 -280 71.5s-141.5 111 -182.5 190s-61.5 167.5 -61.5 265.5zM285.001 503.999c0 -52.667 9.83203 -101 29.499 -145s50.834 -80.333 93.501 -109s93 -43 151 -43c86.667 0 154.167 29 202.5 87s72.5 128 72.5 210
c0 80 -25.667 149.833 -77 209.5s-117.333 89.5 -198 89.5c-85.333 0 -152.333 -29.5 -201 -88.5s-73 -129.167 -73 -210.5z" />
    <glyph glyph-name="p" unicode="p" horiz-adv-x="1280" 
d="M82 -422l-0.00195312 1432h233l17 -140c36.667 53.333 84.834 93.666 144.501 120.999s120.5 41 182.5 41c101.333 0 191.833 -23.333 271.5 -70s140.834 -110 183.501 -190s64 -169.333 64 -268c0 -99.333 -19.667 -188.666 -59 -267.999s-98 -142.666 -176 -189.999
s-169.667 -71 -275 -71c-39.333 0 -78.833 4 -118.5 12s-80.167 23.333 -121.5 46s-73.333 51.334 -96 86.001v-541h-250zM353.998 503.998c0 -80.667 27 -148.667 81 -204s122.667 -83 206 -83s152 27.667 206 83s81 123.333 81 204c0 82 -26 150.333 -78 205
s-121.667 82 -209 82s-157 -27.333 -209 -82s-78 -123 -78 -205z" />
    <glyph glyph-name="q" unicode="q" horiz-adv-x="1265" 
d="M33 504c0 98.667 21.334 188.002 64.001 268.002s103.667 143.333 183 190s169.666 70 270.999 70c62 0 123 -13.667 183 -41s108.333 -67.666 145 -120.999l16 140h233v-1432h-249v541c-22.667 -34.667 -54.667 -63.334 -96 -86.001s-81.833 -38 -121.5 -46
s-79.167 -12 -118.5 -12c-105.333 0 -197 23.667 -275 71s-136.667 110.666 -176 189.999s-59 168.666 -59 267.999zM283.001 504.002c0 -80.667 26.833 -148.667 80.5 -204s122.167 -83 205.5 -83s152 27.667 206 83s81 123.333 81 204c0 82 -26 150.333 -78 205
s-121.667 82 -209 82s-156.833 -27.333 -208.5 -82s-77.5 -123 -77.5 -205z" />
    <glyph glyph-name="r" unicode="r" horiz-adv-x="888" 
d="M82 0l0.000976562 1010h231l19 -117c35.333 56.667 76.166 94.667 122.499 114s100.166 29 161.499 29c50.667 0 99.834 -9 147.501 -27s85.5 -41 113.5 -69l-113 -217c-26.667 22.667 -53.5 39.167 -80.5 49.5s-60.167 15.5 -99.5 15.5c-72 0 -132 -20.833 -180 -62.5
s-72 -106.167 -72 -193.5v-532h-250z" />
    <glyph glyph-name="s" unicode="s" horiz-adv-x="1005" 
d="M27 145l122.999 178.998c34.667 -38.667 86.667 -71.667 156 -99s133.333 -41.666 192 -42.999h8c45.333 0 85.333 10.667 120 32c36 22.667 54 52.334 54 89.001c0 34.667 -15.5 60.167 -46.5 76.5s-82.5 26.5 -154.5 30.5c-41.333 3.33301 -80.333 8.66602 -117 15.999
s-73.834 18.833 -111.501 34.5s-70.167 34.667 -97.5 57s-49.5 51.166 -66.5 86.499s-25.5 75 -25.5 119c0 55.333 13.333 104.166 40 146.499s61.667 75.333 105 99s88.666 41.167 135.999 52.5s95.666 17 144.999 17c82.667 0 154.834 -9.83301 216.501 -29.5
s120.834 -54.167 177.501 -103.5l-140 -164c-63.333 60 -146.333 90 -249 90c-59.333 0 -105 -8.83301 -137 -26.5s-48 -42.167 -48 -73.5c0 -65.333 63 -102 189 -110c30.667 -2 58.667 -4.5 84 -7.5s53.333 -8 84 -15s58 -15.5 82 -25.5s47.833 -23.333 71.5 -40
s43.167 -35.667 58.5 -57s27.833 -47.166 37.5 -77.499s14.5 -64.166 14.5 -101.499c0 -94.667 -37.833 -173.667 -113.5 -237s-182.5 -95 -320.5 -95c-93.333 0 -177.666 12.333 -252.999 37s-146.666 72.334 -213.999 143.001z" />
    <glyph glyph-name="t" unicode="t" horiz-adv-x="817" 
d="M-4 793v215h188v260l250 26v-286h279v-215h-281v-437c0 -46.667 11.833 -82.167 35.5 -106.5s55.5 -36.5 95.5 -36.5c38 0 78.333 10.333 121 31l70 -213c-66.667 -26.667 -135.667 -41 -207 -43h-20c-102 0 -183.667 29.333 -245 88c-65.333 62.667 -98 156 -98 280v437
h-188z" />
    <glyph glyph-name="u" unicode="u" horiz-adv-x="1226" 
d="M88 479l0.000976562 531.001h250v-529c0 -80 21.333 -145 64 -195s102.667 -75 180 -75c75.333 0 137.166 27.5 185.499 82.5s72.5 121.833 72.5 200.5v516h247v-1012h-223l-16 137c-53.333 -52.667 -106.5 -91 -159.5 -115s-113.833 -36 -182.5 -36
c-124 0 -224.667 44.167 -302 132.5s-116 209.166 -116 362.499z" />
    <glyph glyph-name="v" unicode="v" horiz-adv-x="1167" 
d="M-4 1012h272l140 -334l155 -426l154 422l139 338h272l-430 -1016h-270z" />
    <glyph glyph-name="w" unicode="w" horiz-adv-x="1867" 
d="M61 1012h279l231 -760l220 760h219l221 -760l231 760h277l-353 -1016h-290l-105 299l-90 338l-90 -338l-104 -299h-291z" />
    <glyph glyph-name="x" unicode="x" horiz-adv-x="1089" 
d="M8 0v6l352 506l-331 489v9h299l198 -342l199 342h299v-9l-332 -489l352 -506v-6h-299l-219 338l-219 -338h-299z" />
    <glyph glyph-name="y" unicode="y" horiz-adv-x="1148" 
d="M-6 1010h291l153 -437l97 -284l104 278l184 443h277l-617 -1432h-274l188 438z" />
    <glyph glyph-name="z" unicode="z" horiz-adv-x="935" 
d="M18 0v104l484 678h-447v228h809v-119l-465 -645h469v-246h-850z" />
    <glyph glyph-name="braceleft" unicode="{" horiz-adv-x="692" 
d="M47 588l-0.00390625 186.003c24.667 0 46 3.66699 64 11s32 16.333 42 27s17.833 24.167 23.5 40.5s9.33398 31.5 11.001 45.5s2.5 30 2.5 48v287c0 133.333 37.167 229.666 111.5 288.999s185.5 75.666 333.5 48.999v-195c-66 17.333 -112.833 13.833 -140.5 -10.5
s-41.5 -72.5 -41.5 -144.5v-275v-21c0 -24.667 -0.166992 -43.167 -0.5 -55.5s-1.66602 -28.333 -3.99902 -48s-6.66602 -35.167 -12.999 -46.5s-14.5 -23.666 -24.5 -36.999s-23.667 -24.666 -41 -33.999s-37.666 -17.333 -60.999 -24c20 -5.33301 37.833 -12.333 53.5 -21
s28.5 -16.834 38.5 -24.501s18.5 -18.5 25.5 -32.5s12.333 -25.5 16 -34.5s6.33398 -22.833 8.00098 -41.5s2.5 -32.5 2.5 -41.5v-47.5v-21v-275c0 -72 11.5 -117.833 34.5 -137.5s72.167 -25.5 147.5 -17.5v-195c-148 -26.667 -259.167 -10.334 -333.5 48.999
s-111.5 155.666 -111.5 288.999v287c0 18 -0.833008 34 -2.5 48s-5.33398 29.167 -11.001 45.5s-13.5 29.833 -23.5 40.5s-24 19.667 -42 27s-39.333 11 -64 11z" />
    <glyph glyph-name="bar" unicode="|" horiz-adv-x="626" 
d="M152 -172v1712h241v-1712h-241z" />
    <glyph glyph-name="braceright" unicode="}" horiz-adv-x="696" 
d="M-4 -14c75.333 -8 124.501 -2.17676 147.501 17.4902s34.5 65.5 34.5 137.5v275c0 70.667 2.66699 117 8 139c12.667 54.667 49 93.334 109 116.001c8 3.33301 17 6.33301 27 9c-20 6 -37.833 13.333 -53.5 22s-28.5 16.834 -38.5 24.501s-18.5 18.5 -25.5 32.5
s-12.333 25.5 -16 34.5s-6.33398 22.833 -8.00098 41.5s-2.5 32.667 -2.5 42v48v21v275c0 72 -13.833 120.167 -41.5 144.5s-74.5 27.833 -140.5 10.5v195c148 26.667 259 10.334 333 -48.999s111 -155.666 111 -288.999v-287c0 -23.333 1.66699 -43.666 5 -60.999
s9.5 -35.166 18.5 -53.499s23.667 -32.5 44 -42.5s45.833 -15 76.5 -15v-186c-30.667 0 -56.167 -5 -76.5 -15s-35 -24.167 -44 -42.5s-15.167 -36.166 -18.5 -53.499s-5 -37.666 -5 -60.999v-287c0 -133.333 -37 -229.666 -111 -288.999s-185 -75.666 -333 -48.999v195z
" />
    <glyph glyph-name="asciitilde" unicode="~" horiz-adv-x="1060" 
d="M-8 539c17.333 62 43.668 113.168 79.001 153.501s72.666 68.166 111.999 83.499s82 23 128 23c35.333 0 70.333 -6.33301 105 -19s64 -27.167 88 -43.5s51.5 -33.666 82.5 -51.999s58.833 -31.5 83.5 -39.5c35.333 -10.667 65 -5.83398 89 14.499s46 55.166 66 104.499
l183 -62c-15.333 -47.333 -34.833 -89.5 -58.5 -126.5s-52.5 -68.667 -86.5 -95s-72 -42.166 -114 -47.499s-89 0 -141 16c-26 8.66699 -58.833 25.5 -98.5 50.5s-77 46.667 -112 65s-66.5 27.5 -94.5 27.5c-62 0 -109.667 -39 -143 -117z" />
    <glyph glyph-name="uni00A0" unicode="&#xa0;" horiz-adv-x="413" 
 />
    <glyph glyph-name="exclamdown" unicode="&#xa1;" horiz-adv-x="653" 
d="M123 809c0 29.333 6 55.666 18 78.999s27.667 41 47 53s40.666 20.667 63.999 26s46.666 5.33301 69.999 0s44.666 -14 63.999 -26s35 -29.667 47 -53s18 -49.666 18 -78.999c0 -30 -6 -56.667 -18 -80s-27.667 -41 -47 -53s-40.666 -20.833 -63.999 -26.5
s-46.666 -5.66699 -69.999 0s-44.666 14.5 -63.999 26.5s-35 29.667 -47 53s-18 50 -18 80zM154 -475h268v1057h-268v-1057z" />
    <glyph glyph-name="cent" unicode="&#xa2;" horiz-adv-x="1120" 
d="M74 479c0 124 37.001 233.997 111.001 329.997s173.333 158.667 298 188v150h232v-148c104.667 -20.667 195.334 -68.334 272.001 -143.001l-145 -162c-26.667 26.667 -62.334 48.334 -107.001 65.001s-86.334 25 -125.001 25c-79.333 0 -147.166 -29.5 -203.499 -88.5
s-84.5 -131.167 -84.5 -216.5s28.167 -157.166 84.5 -215.499s124.166 -87.5 203.499 -87.5c36 0 75.5 10.5 118.5 31.5s78.833 46.167 107.5 75.5l153 -181c-82 -77.333 -173.333 -125.666 -274 -144.999v-143h-232v147c-121.333 27.333 -219.833 88.833 -295.5 184.5
s-113.5 206.834 -113.5 333.501z" />
    <glyph glyph-name="sterling" unicode="&#xa3;" horiz-adv-x="1288" 
d="M90 0l0.000976562 255.999c65.333 16 113.666 49.667 144.999 101s46 114 44 188h-189v227h146c-24.667 97.333 -37 166.333 -37 207c0 150 46.333 267 139 351s220.334 126 383.001 126c149.333 0 267.166 -35.167 353.499 -105.5s132.833 -179.166 139.5 -326.499h-247
c-6 66 -29.167 115 -69.5 147s-98.5 48 -174.5 48c-88 0 -152 -21.833 -192 -65.5s-60 -100.5 -60 -170.5c0 -44.667 11 -115 33 -211h424v-227h-377c4.66699 -56 -3.5 -112.167 -24.5 -168.5s-57.167 -96.5 -108.5 -120.5h803v-256h-1131z" />
    <glyph glyph-name="currency" unicode="&#xa4;" horiz-adv-x="1107" 
d="M27 328l117.997 116.001c-66.667 132 -63.667 266 9 402l-127 121l188 188l119 -121c62.667 26.667 129.334 39.667 200.001 39s136.334 -14.334 197.001 -41.001l123 123l186 -188l-118 -119c31.333 -66 47.333 -134.167 48 -204.5s-14.666 -136.833 -45.999 -199.5
l116 -116l-184 -185l-121 119c-66.667 -26.667 -134 -39.667 -202 -39s-134.333 13.667 -199 39l-119 -121zM314.997 647.001c0 -59.333 20.167 -111 60.5 -155s92.5 -66 156.5 -66c66 0 118.5 21.833 157.5 65.5s58.5 95.5 58.5 155.5s-19.5 111.833 -58.5 155.5
s-91.5 65.5 -157.5 65.5c-64 0 -116.167 -22 -156.5 -66s-60.5 -95.667 -60.5 -155z" />
    <glyph glyph-name="yen" unicode="&#xa5;" horiz-adv-x="1472" 
d="M18 1421v13h322l365 -592l380 592h326v-13l-471 -684h215v-198h-315v-105h315v-194h-315v-240h-271v240h-317v194h317v105h-317v198h221z" />
    <glyph glyph-name="brokenbar" unicode="&#xa6;" horiz-adv-x="624" 
d="M164 -186v755h256v-755h-256zM164 698v756h256v-756h-256z" />
    <glyph glyph-name="section" unicode="&#xa7;" horiz-adv-x="1232" 
d="M80 160l161.999 169.999c46.667 -50.667 98.5 -85.167 155.5 -103.5s123.833 -26.833 200.5 -25.5c71.333 0 132.333 8.5 183 25.5s77 41.167 79 72.5c2 28 -20.833 50.333 -68.5 67s-109.5 24.334 -185.5 23.001c-64.667 -1.33301 -127 3.66699 -187 15
s-115.667 28.833 -167 52.5s-91.833 56.834 -121.5 99.501s-43.167 92.334 -40.5 149.001c2 40 19 79.667 51 119s75.667 67.666 131 84.999c-59.333 12.667 -102.833 40.667 -130.5 84s-40.167 88.333 -37.5 135c2.66699 50 16.667 94.5 42 133.5s56.5 70 93.5 93
s80 42 129 57s95.833 25.167 140.5 30.5s90 8 136 8c55.333 0 108.666 -4 159.999 -12s104.666 -24 159.999 -48s99.666 -55.333 132.999 -94l-178 -151c-35.333 33.333 -75.166 55.666 -119.499 66.999s-99.5 17 -165.5 17c-172.667 0 -260.667 -31.333 -264 -94
c-0.666992 -18.667 6.5 -35 21.5 -49s35.333 -24.667 61 -32s52.167 -12.833 79.5 -16.5s55 -5.5 83 -5.5c42.667 0 82.834 -1.66699 120.501 -5s77.5 -8.83301 119.5 -16.5s79.333 -19.334 112 -35.001s62.167 -34.5 88.5 -56.5s45.833 -50.333 58.5 -85
s17 -73.667 13 -117c-4 -41.333 -22.5 -81.666 -55.5 -120.999s-73.167 -66 -120.5 -80c58 -17.333 102 -47.833 132 -91.5s44 -86.167 42 -127.5c-2 -49.333 -16.167 -93.333 -42.5 -132s-58.5 -69.5 -96.5 -92.5s-81.667 -42 -131 -57s-95.666 -25.167 -138.999 -30.5
s-85.666 -8 -126.999 -8c-237.333 0 -407.333 61 -510 183zM349.999 712.999c-3.33301 -50 37.667 -84.8301 123 -104.497s171.833 -19.334 259.5 0.999023s132.834 54.166 135.501 101.499c3.33301 53.333 -37.667 91.166 -123 113.499s-171.833 22.5 -259.5 0.5
s-132.834 -59.333 -135.501 -112z" />
    <glyph glyph-name="dieresis" unicode="&#xa8;" horiz-adv-x="1046" 
d="M100 1341c0 26 5.33008 49.167 15.9971 69.5s24.334 35.833 41.001 46.5s35.167 18.5 55.5 23.5s40.833 5 61.5 0s39.334 -12.833 56.001 -23.5s30.334 -26.167 41.001 -46.5s16 -43.5 16 -69.5c0 -36 -9.83301 -66.167 -29.5 -90.5s-43.5 -39.333 -71.5 -45
s-56.167 -5.66699 -84.5 0s-52.333 20.667 -72 45s-29.5 54.5 -29.5 90.5zM609.997 1341c0 26 5.33008 49.167 15.9971 69.5s24.334 35.833 41.001 46.5s35.334 18.5 56.001 23.5s41.167 5 61.5 0s38.833 -12.833 55.5 -23.5s30.334 -26.167 41.001 -46.5s16 -43.5 16 -69.5
c0 -36 -9.83301 -66.167 -29.5 -90.5s-43.5 -39.333 -71.5 -45s-56.167 -5.66699 -84.5 0s-52.333 20.667 -72 45s-29.5 54.5 -29.5 90.5z" />
    <glyph glyph-name="copyright" unicode="&#xa9;" horiz-adv-x="1894" 
d="M180 725c0 102 17.333 198.171 52 288.504s83.667 169.666 147 237.999s142.833 122.333 238.5 162s201.167 59.5 316.5 59.5s220.333 -19.833 315 -59.5s172.5 -93.834 233.5 -162.501s108 -148 141 -238s49.5 -186 49.5 -288s-16.5 -198 -49.5 -288
s-80 -169.333 -141 -238s-138.833 -122.834 -233.5 -162.501s-199.667 -59.5 -315 -59.5s-220.833 19.833 -316.5 59.5s-175.167 93.667 -238.5 162s-112.333 147.666 -147 237.999s-52 186.5 -52 288.5zM397 725.004c0 -103.333 21.333 -196.67 64 -280.003
s105.167 -149.666 187.5 -198.999s177.5 -74 285.5 -74c81.333 0 155.333 14.333 222 43s121.667 68 165 118s76.666 108.5 99.999 175.5s35 139.167 35 216.5s-11.667 149.5 -35 216.5s-56.666 125.5 -99.999 175.5s-98.333 89.333 -165 118s-140.667 43 -222 43
c-108 0 -203.167 -24.667 -285.5 -74s-144.833 -115.666 -187.5 -198.999s-64 -176.666 -64 -279.999zM551 721c0 -122.667 39.501 -218.502 118.501 -287.502s178.167 -103.5 297.5 -103.5c110 0 209 43 297 129l-134 125c-48 -48 -102.333 -72 -163 -72
c-62.667 0 -116 18.833 -160 56.5s-66 88.5 -66 152.5c0 68.667 21.667 122.334 65 161.001s97 58 161 58c60 0 113.667 -22.667 161 -68l132 121c-84.667 84.667 -182.334 127 -293.001 127c-119.333 0 -218.5 -35.667 -297.5 -107s-118.5 -168.666 -118.5 -291.999z" />
    <glyph glyph-name="ordfeminine" unicode="&#xaa;" horiz-adv-x="849" 
d="M6 1104c0 110.667 32.334 196.332 97.001 256.999s147.667 90.334 249 89.001c44.667 0 86.167 -9.66699 124.5 -29s67.166 -45.333 86.499 -78l4 91h187v-662h-185l-6 96c-18 -36 -47.833 -64 -89.5 -84s-83.5 -30.667 -125.5 -32c-102 0 -184.5 30.667 -247.5 92
s-94.5 148 -94.5 260zM31.001 476.998v178h727v-178h-727zM203.001 1104c0 -52.667 16 -94.5 48 -125.5s72 -46.5 120 -46.5c35.333 0 65.833 8.5 91.5 25.5s44.334 38.167 56.001 63.5s17.5 53 17.5 83s-5.83301 57.667 -17.5 83s-30.334 46.5 -56.001 63.5
s-56.167 25.5 -91.5 25.5c-48 0 -88 -15.5 -120 -46.5s-48 -72.833 -48 -125.5z" />
    <glyph glyph-name="guillemotleft" unicode="&#xab;" horiz-adv-x="1009" 
d="M25 651l284 453h266l-282 -453l282 -454h-266zM385 651l285 453h266l-283 -453l283 -454h-266z" />
    <glyph glyph-name="logicalnot" unicode="&#xac;" horiz-adv-x="958" 
d="M31 569v213h809v-473h-215v260h-594z" />
    <glyph glyph-name="uni00AD" unicode="&#xad;" horiz-adv-x="937" 
d="M72 553v229h755v-229h-755z" />
    <glyph glyph-name="registered" unicode="&#xae;" horiz-adv-x="1894" 
d="M197 719c0 102 16.502 198.004 49.502 288.004s80.167 169.167 141.5 237.5s139.166 122.333 233.499 162s199.166 59.5 314.499 59.5s220.333 -19.833 315 -59.5s172.667 -93.667 234 -162s108.666 -147.5 141.999 -237.5s50 -186 50 -288s-16.667 -198 -50 -288
s-80.666 -169.333 -141.999 -238s-139.333 -122.834 -234 -162.501s-199.667 -59.5 -315 -59.5c-92.667 0 -178.667 12.833 -258 38.5s-148.166 61.667 -206.499 108s-108.333 100.666 -150 162.999s-72.834 130.666 -93.501 204.999s-31 152.166 -31 233.499z
M414.002 719.004c0.666992 -104 21 -197.331 61 -279.998s100 -148.834 180 -198.501s173.667 -74.5 281 -74.5c81.333 0 155.333 14.333 222 43s121.667 68 165 118s76.666 108.5 99.999 175.5s35 139.167 35 216.5s-11.667 149.5 -35 216.5s-56.666 125.5 -99.999 175.5
s-98.333 89.333 -165 118s-140.667 43 -222 43c-107.333 0 -201 -24.833 -281 -74.5s-140 -115.834 -180 -198.501s-60.333 -176 -61 -280zM641.002 344.006l199 -0.000976562v234h69l178 -234h213v43l-186 229c29.333 6.66699 55.5 17.5 78.5 32.5s41.333 32.5 55 52.5
s24.167 42.167 31.5 66.5s10 49 8 74s-6.66699 49.833 -14 74.5s-19.333 47.834 -36 69.501s-36 40.667 -58 57s-48.5 29.333 -79.5 39s-64.5 14.5 -100.5 14.5h-358v-752zM840.002 745.005v173h159c27.333 0 49 -9 65 -27s24 -37.833 24 -59.5s-8 -41.5 -24 -59.5
s-37.667 -27 -65 -27h-159z" />
    <glyph glyph-name="degree" unicode="&#xb0;" horiz-adv-x="622" 
d="M14 1219c0 81.333 27.668 145 83.001 191s120 69 194 69s138.167 -23 192.5 -69s81.5 -109.667 81.5 -191c0 -82 -27.333 -146 -82 -192s-119.334 -69 -194.001 -69c-74 0 -138.333 23 -193 69s-82 110 -82 192zM174.501 1184.5
c4.33301 -22.333 16.832 -41.333 37.499 -57s46.334 -23.5 77.001 -23.5s56.334 7.83301 77.001 23.5s33.334 34.667 38.001 57s4.66699 44.5 0 66.5s-17.334 40.833 -38.001 56.5s-45.667 23.5 -75 23.5c-30.667 0 -56.334 -7.83301 -77.001 -23.5s-33.5 -34.5 -38.5 -56.5
s-5.33301 -44.167 -1 -66.5z" />
    <glyph glyph-name="plusminus" unicode="&#xb1;" horiz-adv-x="960" 
d="M41 39v227h838v-227h-838zM41 655v234h293v303h250v-303h295v-234h-295v-303h-250v303h-293z" />
    <glyph glyph-name="uni00B2" unicode="&#xb2;" horiz-adv-x="751" 
d="M63 811v197c0 40.667 7.83301 75.334 23.5 104.001s36 50.334 61 65.001s52.667 26.5 83 35.5s60.666 16.167 90.999 21.5s58 11.333 83 18s45.333 16.834 61 30.501s23.5 31.167 23.5 52.5c0 57.333 -42.333 86 -127 86c-31.333 0 -58 -6.5 -80 -19.5
s-33.333 -31.5 -34 -55.5h-180c0.666992 50.667 15.834 94.167 45.501 130.5s65.667 62.5 108 78.5s87.833 24 136.5 24c96 0 172.333 -20 229 -60s85 -101.333 85 -184c0 -36.667 -6 -68.667 -18 -96s-27.833 -48.5 -47.5 -63.5s-42.167 -27.833 -67.5 -38.5
s-51 -18.167 -77 -22.5s-51.667 -9.33301 -77 -15s-47.833 -11.334 -67.5 -17.001s-35.5 -14.834 -47.5 -27.501s-18 -28.334 -18 -47.001v-27h405v-170h-594z" />
    <glyph glyph-name="uni00B3" unicode="&#xb3;" horiz-adv-x="800" 
d="M41 1030l188.001 0.000976562c14.667 -48 57 -72 127 -72c35.333 0 66 6.66699 92 20s39 32.666 39 57.999c0 26.667 -10 48.667 -30 66s-53 26 -99 26h-116v138h108c43.333 0 75.166 5.16699 95.499 15.5s30.833 31.833 31.5 64.5c0 17.333 -9.5 34.833 -28.5 52.5
s-51.167 26.5 -96.5 26.5c-38 0 -68.5 -5 -91.5 -15s-38.167 -29.333 -45.5 -58h-160c0 51.333 15.667 94.666 47 129.999s68.666 60.333 111.999 75s90 22 140 22s97.333 -8 142 -24s82.834 -42.167 114.501 -78.5s47.834 -79.833 48.501 -130.5
c0 -32 -8.5 -62.667 -25.5 -92s-41.167 -48.666 -72.5 -57.999c35.333 -11.333 63.666 -31.833 84.999 -61.5s32 -61.167 32 -94.5c0 -35.333 -6.83301 -67.333 -20.5 -96s-31.334 -52 -53.001 -70s-47.167 -33.167 -76.5 -45.5s-58.666 -21 -87.999 -26
s-59.333 -7.5 -90 -7.5c-37.333 0 -73.5 4.5 -108.5 13.5s-67.833 22.333 -98.5 40s-55.167 42.167 -73.5 73.5s-27.833 67.333 -28.5 108z" />
    <glyph glyph-name="acute" unicode="&#xb4;" horiz-adv-x="489" 
d="M-8 1141v12l151 279h295v-11l-225 -280h-221z" />
    <glyph glyph-name="paragraph" unicode="&#xb6;" horiz-adv-x="1712" 
d="M23 893c0 54.667 7.33008 107.999 21.9971 159.999s37.334 101 68.001 147s67.834 86.333 111.501 121s96.167 62.167 157.5 82.5s128 30.5 200 30.5h1038v-254h-190v-1616h-271v1616h-379v-1616h-270v792c-78 8 -148.667 28.833 -212 62.5
s-114.666 75.334 -153.999 125.001s-69.333 104.5 -90 164.5s-31 121.667 -31 185z" />
    <glyph glyph-name="periodcentered" unicode="&#xb7;" horiz-adv-x="462" 
d="M35 678c0 48.667 16.167 86.667 48.5 114s68 41 107 41s74.667 -13.667 107 -41s48.5 -65.333 48.5 -114s-16.167 -86.667 -48.5 -114s-68 -41 -107 -41s-74.667 13.667 -107 41s-48.5 65.333 -48.5 114z" />
    <glyph glyph-name="cedilla" unicode="&#xb8;" horiz-adv-x="782" 
d="M68 -346l107.997 91.9971c19.333 -26 46.833 -44.667 82.5 -56s69.5 -12.666 101.5 -3.99902s52 26 60 52c7.33301 24.667 1.5 46.5 -17.5 65.5s-42.833 29 -71.5 30s-57 -6.83301 -85 -23.5l-60 47l66 192h180l-33 -104
c44.667 -1.33301 82.834 -9.66602 114.501 -24.999s54.334 -34.333 68.001 -57s23.5 -47.667 29.5 -75s5.66699 -53.666 -1 -78.999c-10 -46 -31.167 -84.833 -63.5 -116.5s-70.166 -53 -113.499 -64s-88 -14.667 -134 -11s-90 17.5 -132 41.5s-75 55.667 -99 95z" />
    <glyph glyph-name="uni00B9" unicode="&#xb9;" horiz-adv-x="581" 
d="M109 811v160h102v440h-94v154h274v-594h88v-160h-370z" />
    <glyph glyph-name="ordmasculine" unicode="&#xba;" horiz-adv-x="765" 
d="M31 1133v110c0 54 9.5 103 28.5 147s44.333 79.333 76 106s67.5 47.334 107.5 62.001s80.833 22 122.5 22s82.5 -7.33301 122.5 -22s75.833 -35.334 107.5 -62.001s57 -62 76 -106s28.5 -93 28.5 -147v-110c0 -54 -9.5 -103 -28.5 -147s-44.333 -79.333 -76 -106
s-67.5 -47.334 -107.5 -62.001s-80.833 -22 -122.5 -22s-82.5 7.33301 -122.5 22s-75.833 35.334 -107.5 62.001s-57 62 -76 106s-28.5 93 -28.5 147zM207 1128c0 -30 5.83301 -56.668 17.5 -80.001s26.667 -41 45 -53s38.666 -20.833 60.999 -26.5s44.5 -5.66699 66.5 0
s42.167 14.5 60.5 26.5s33.333 29.667 45 53s17.5 50 17.5 80v113c0 29.333 -5.83301 55.5 -17.5 78.5s-26.667 40.5 -45 52.5s-38.5 20.833 -60.5 26.5s-44.167 5.83398 -66.5 0.500977s-42.666 -14 -60.999 -26s-33.333 -29.5 -45 -52.5s-17.5 -49.5 -17.5 -79.5v-113z
" />
    <glyph glyph-name="guillemotright" unicode="&#xbb;" horiz-adv-x="942" 
d="M-6 197l282 454l-282 453h266l285 -453l-285 -454h-266zM354 197l283 454l-283 453h267l284 -453l-284 -454h-267z" />
    <glyph glyph-name="onequarter" unicode="&#xbc;" horiz-adv-x="1566" 
d="M74 686v156h102v444h-94v154h274v-598h101v-156h-383zM201 -59l821 1507h199l-824 -1507h-196zM817 287l346 465h236v-461h69v-158h-69v-133h-180v133h-394zM1004 291h215v287z" />
    <glyph glyph-name="onehalf" unicode="&#xbd;" horiz-adv-x="1658" 
d="M74 686v156h102v444h-94v154h274v-598h101v-156h-383zM201 -59l821 1507h199l-824 -1507h-196zM944 -8l-0.00292969 195.999c0 40.667 7.83301 75.334 23.5 104.001s36 50.334 61 65.001s52.667 26.667 83 36s60.666 16.666 90.999 21.999s58 11.333 83 18
s45.333 16.834 61 30.501s23.5 31.167 23.5 52.5c0 57.333 -42.333 86 -127 86c-31.333 0 -58.166 -6.66699 -80.499 -20s-33.833 -32 -34.5 -56h-180c0.666992 50.667 15.834 94.334 45.501 131.001s65.834 63 108.501 79s88.334 24 137.001 24c96 0 172.167 -20 228.5 -60
s84.5 -101.333 84.5 -184c0 -36.667 -6 -68.667 -18 -96s-27.833 -48.5 -47.5 -63.5s-42 -27.833 -67 -38.5s-50.667 -18.167 -77 -22.5s-52 -9.5 -77 -15.5s-47.333 -11.833 -67 -17.5s-35.5 -14.834 -47.5 -27.501s-18 -28.334 -18 -47.001v-26h405v-170h-594z" />
    <glyph glyph-name="threequarters" unicode="&#xbe;" horiz-adv-x="1730" 
d="M78 932h180.001c14.667 -46.667 55.667 -70 123 -70c34 0 63.667 6.5 89 19.5s38 31.833 38 56.5c0 25.333 -9.66699 46.333 -29 63s-51.333 25 -96 25h-113v133h105c42.667 0 73.667 4.83301 93 14.5s29.333 30.167 30 61.5c0 17.333 -9.16699 34.666 -27.5 51.999
s-49.5 26 -93.5 26c-36.667 0 -66 -5 -88 -15s-36.333 -29 -43 -57h-156c0 49.333 15.333 91.166 46 125.499s67 58.5 109 72.5s86.667 21 134 21c48.667 0 94.667 -7.66699 138 -23s80.166 -40.666 110.499 -75.999s45.833 -77.333 46.5 -126c0 -30.667 -8.5 -60 -25.5 -88
s-40.5 -46.333 -70.5 -55c34.667 -10.667 62 -30.5 82 -59.5s30 -59.167 30 -90.5c0 -42.667 -9.66699 -80 -29 -112s-44.833 -56.667 -76.5 -74s-65 -30.166 -100 -38.499s-71.5 -12.5 -109.5 -12.5c-28.667 0 -56.5 2.5 -83.5 7.5s-53.5 13.333 -79.5 25
s-48.667 26.167 -68 43.5s-35 39 -47 65s-18.333 54.667 -19 86zM342.001 -59l821 1507h199l-823 -1507h-197zM940.001 287l346 465h236v-461h69v-158h-69v-133h-181v133h-393zM1126 291h215v287z" />
    <glyph glyph-name="questiondown" unicode="&#xbf;" horiz-adv-x="1226" 
d="M35 45c-1.33301 -74.667 12.666 -140.5 41.999 -197.5s70 -102.333 122 -136s110.333 -58.834 175 -75.501s134.667 -25 210 -25c74 -0.666992 143.167 7.83301 207.5 25.5s121.833 43.834 172.5 78.501s90.834 80.5 120.501 137.5s44.834 121.833 45.501 194.5l-274 2
c-2 -61.333 -30 -110.5 -84 -147.5s-116 -55.5 -186 -55.5c-34.667 0 -66.834 3 -96.501 9s-58.167 15.833 -85.5 29.5s-49 33.834 -65 60.501s-24 58.667 -24 96c0 23.333 4.16699 43.833 12.5 61.5s21.5 32.834 39.5 45.501s35.167 23 51.5 31s38.166 17.667 65.499 29
s49 21.333 65 30c28.667 14.667 50.834 27 66.501 37s35 25.833 58 47.5s40.667 45.167 53 70.5s23.166 59.166 32.499 101.499s14.333 90.5 15 144.5v10l-270 2l2 -10c-1.33301 -48.667 -8 -88 -20 -118s-32 -54 -60 -72c-16 -10.667 -39.167 -23.334 -69.5 -38.001
l-85 -40c-26.333 -12 -54.666 -28.333 -84.999 -49s-56 -42.667 -77 -66s-38.667 -53.5 -53 -90.5s-21.5 -77.833 -21.5 -122.5zM478.999 899c0 29.333 5.99805 55.666 17.998 78.999s27.667 40.833 47 52.5s40.666 20.334 63.999 26.001s46.5 5.66699 69.5 0
s44.167 -14.5 63.5 -26.5s34.833 -29.667 46.5 -53s17.5 -50 17.5 -80c0 -29.333 -5.83301 -55.666 -17.5 -78.999s-27.167 -40.833 -46.5 -52.5s-40.666 -20.334 -63.999 -26.001s-46.666 -5.66699 -69.999 0s-44.666 14.5 -63.999 26.5s-34.833 29.667 -46.5 53
s-17.5 50 -17.5 80z" />
    <glyph glyph-name="Agrave" unicode="&#xc0;" 
d="M-47 0l643 1434h295l643 -1434h-295l-121 270h-749l-123 -270h-293zM397 1862v10h295l152 -279v-12h-221zM477 522h533l-267 611z" />
    <glyph glyph-name="Aacute" unicode="&#xc1;" 
d="M-47 0h293l123 270h749l121 -270h295l-643 1434h-295zM477 522l266 611l267 -611h-533zM631 1581v12l151 279h295v-10l-225 -281h-221z" />
    <glyph glyph-name="Acircumflex" unicode="&#xc2;" 
d="M-47 0l643 1434h295l643 -1434h-295l-121 270h-749l-123 -270h-293zM379 1542v12l303 283h137l303 -283v-12h-254l-118 121l-117 -121h-254zM477 522h533l-267 611z" />
    <glyph glyph-name="Atilde" unicode="&#xc3;" 
d="M-47 0l643 1434h295l643 -1434h-295l-121 270h-749l-123 -270h-293zM373 1649c58.667 147.333 148.664 207.331 269.997 179.998c16 -4 35.167 -11.167 57.5 -21.5l58 -26.5c16.333 -7.33301 33.5 -12.666 51.5 -15.999s34.833 0 50.5 10s29.834 27.333 42.501 52
l168 -80c-29.333 -77.333 -67.666 -131 -114.999 -161s-97 -37.667 -149 -23c-16.667 4.66699 -36.667 13.334 -60 26.001s-43.333 23 -60 31s-34.5 13.833 -53.5 17.5s-37.167 -0.5 -54.5 -12.5s-33.666 -32.667 -48.999 -62zM476.997 521.998h533l-267 611z" />
    <glyph glyph-name="Adieresis" unicode="&#xc4;" 
d="M-47 0h293l123 270h749l121 -270h295l-643 1434h-295zM342 1688c0 26 5.33008 49.167 15.9971 69.5s24.334 35.833 41.001 46.5s35.334 18.5 56.001 23.5s41.167 5 61.5 0s38.833 -12.833 55.5 -23.5s30.334 -26.167 41.001 -46.5s16 -43.5 16 -69.5
c0 -36 -9.83301 -66.167 -29.5 -90.5s-43.667 -39.333 -72 -45s-56.5 -5.66699 -84.5 0s-51.833 20.667 -71.5 45s-29.5 54.5 -29.5 90.5zM476.997 522l266 611l267 -611h-533zM851.997 1688c0 26 5.33008 49.167 15.9971 69.5s24.334 35.833 41.001 46.5
s35.334 18.5 56.001 23.5s41.167 5 61.5 0s38.833 -12.833 55.5 -23.5s30.334 -26.167 41.001 -46.5s16 -43.5 16 -69.5c0 -36 -9.83301 -66.167 -29.5 -90.5s-43.5 -39.333 -71.5 -45s-56.167 -5.66699 -84.5 0s-52.333 20.667 -72 45s-29.5 54.5 -29.5 90.5z" />
    <glyph glyph-name="Aring" unicode="&#xc5;" 
d="M-47 0l639 1425c-80.667 44 -121 113.667 -121 209c0 77.333 27 138 81 182s117.667 66 191 66c72 0 135.167 -22 189.5 -66s81.5 -104.667 81.5 -182c0 -48 -11 -89.667 -33 -125s-51.333 -63.333 -88 -84l641 -1425h-295l-121 270h-749l-123 -270h-293zM477 522h533
l-267 611zM620 1636.5c0 -26.333 10.6641 -50.332 31.9971 -71.999s50.333 -32.5 87 -32.5c30.667 0 56.334 7.16699 77.001 21.5s33.167 31.666 37.5 51.999s3.83301 40.833 -1.5 61.5s-18.166 38.167 -38.499 52.5s-45.166 21.5 -74.499 21.5
c-37.333 0 -66.5 -10.833 -87.5 -32.5s-31.5 -45.667 -31.5 -72z" />
    <glyph glyph-name="AE" unicode="&#xc6;" horiz-adv-x="1867" 
d="M-43 0l909 1434h885v-254h-598v-340h576v-250h-576v-330h604v-260h-858v289h-450l-183 -289h-309zM600 528h299v256l21 316z" />
    <glyph glyph-name="Ccedilla" unicode="&#xc7;" horiz-adv-x="1351" 
d="M59 707c-0.666992 76 8.66309 150.161 27.9961 222.494s49.5 140.833 90.5 205.5s90.833 121.167 149.5 169.5s130.167 86.666 214.5 114.999s176.833 42.5 277.5 42.5c98.667 0 193 -18.5 283 -55.5s171.333 -91.5 244 -163.5l-181 -174
c-46 44.667 -99 78.334 -159 101.001s-122.333 34 -187 34c-83.333 0 -157.5 -14.5 -222.5 -43.5s-116.667 -67.5 -155 -115.5s-67.333 -100.833 -87 -158.5s-29.167 -117.5 -28.5 -179.5s10.334 -121 29.001 -177s46.834 -107.5 84.501 -154.5s89.167 -84.5 154.5 -112.5
s140.333 -42 225 -42c64 0 128.667 12.833 194 38.5s121 61.5 167 107.5l184 -187c-135.333 -133.333 -304.666 -204.333 -507.999 -213l-29 -92c44.667 -1.33301 82.834 -9.66602 114.501 -24.999s54.334 -34.166 68.001 -56.499s23.5 -47.166 29.5 -74.499
s5.66699 -53.666 -1 -78.999c-8 -38 -24.333 -71.5 -49 -100.5s-53.5 -50.833 -86.5 -65.5s-69 -23.667 -108 -27s-76.833 -0.666016 -113.5 8.00098s-71.667 24.167 -105 46.5s-60 49.833 -80 82.5l108 92c19.333 -26 46.833 -44.667 82.5 -56s69.5 -12.666 101.5 -3.99902
s52 26 60 52c7.33301 24.667 1.5 46.5 -17.5 65.5s-42.833 29 -71.5 30s-57 -6.83301 -85 -23.5l-60 47l64 190c-104 14 -196.5 44 -277.5 90s-145.667 102.833 -194 170.5s-84.833 141 -109.5 220s-37.334 162.167 -38.001 249.5z" />
    <glyph glyph-name="Egrave" unicode="&#xc8;" horiz-adv-x="1267" 
d="M96 0v1434h1073v-263h-804v-329h776v-252h-776v-324h804v-266h-1073zM344 1872v10h295l152 -278v-13h-222z" />
    <glyph glyph-name="Eacute" unicode="&#xc9;" horiz-adv-x="1267" 
d="M96 0h1073v266h-804v324h776v252h-776v329h804v263h-1073v-1434zM524 1579v12l152 279h295v-10l-226 -281h-221z" />
    <glyph glyph-name="Ecircumflex" unicode="&#xca;" horiz-adv-x="1267" 
d="M96 0v1434h1073v-263h-804v-329h776v-252h-776v-324h804v-266h-1073zM311 1579v12l303 283h138l303 -283v-12h-254l-119 121l-117 -121h-254z" />
    <glyph glyph-name="Edieresis" unicode="&#xcb;" horiz-adv-x="1277" 
d="M96 0h1073v266h-804v324h776v252h-776v329h804v263h-1073v-1434zM258 1720c0 26 5.33008 49.167 15.9971 69.5s24.334 35.833 41.001 46.5s35.167 18.5 55.5 23.5s40.833 5 61.5 0s39.334 -12.833 56.001 -23.5s30.334 -26.167 41.001 -46.5s16 -43.5 16 -69.5
c0 -36 -9.83301 -66.167 -29.5 -90.5s-43.667 -39.333 -72 -45s-56.5 -5.66699 -84.5 0s-51.833 20.667 -71.5 45s-29.5 54.5 -29.5 90.5zM767.997 1720c0 26 5.33008 49.167 15.9971 69.5s24.334 35.833 41.001 46.5s35.334 18.5 56.001 23.5s41.167 5 61.5 0
s38.833 -12.833 55.5 -23.5s30.334 -26.167 41.001 -46.5s16 -43.5 16 -69.5c0 -36 -9.83301 -66.167 -29.5 -90.5s-43.5 -39.333 -71.5 -45s-56.167 -5.66699 -84.5 0s-52.333 20.667 -72 45s-29.5 54.5 -29.5 90.5z" />
    <glyph glyph-name="Igrave" unicode="&#xcc;" horiz-adv-x="524" 
d="M-92 1845v10h295l151 -278v-12h-221zM102 0v1434h269v-1434h-269z" />
    <glyph glyph-name="Iacute" unicode="&#xcd;" horiz-adv-x="524" 
d="M102 0h269v1434h-269v-1434zM117 1565v12l151 278h295v-10l-225 -280h-221z" />
    <glyph glyph-name="Icircumflex" unicode="&#xce;" horiz-adv-x="524" 
d="M-131 1552v13l303 282h137l303 -282v-13h-254l-118 121l-117 -121h-254zM102 0v1434h269v-1434h-269z" />
    <glyph glyph-name="Idieresis" unicode="&#xcf;" horiz-adv-x="524" 
d="M-133 1696c0 26 5.33008 49.167 15.9971 69.5s24.334 35.833 41.001 46.5s35.167 18.5 55.5 23.5s40.833 5 61.5 0s39.334 -12.833 56.001 -23.5s30.334 -26.167 41.001 -46.5s16 -43.5 16 -69.5c0 -36 -9.83301 -66.167 -29.5 -90.5s-43.5 -39.333 -71.5 -45
s-56.167 -5.66699 -84.5 0s-52.333 20.667 -72 45s-29.5 54.5 -29.5 90.5zM101.997 0h269v1434h-269v-1434zM304.997 1696c0 26 5.33008 49.167 15.9971 69.5s24.334 35.833 41.001 46.5s35.167 18.5 55.5 23.5s40.833 5 61.5 0s39.334 -12.833 56.001 -23.5
s30.334 -26.167 41.001 -46.5s16 -43.5 16 -69.5c0 -36 -9.83301 -66.167 -29.5 -90.5s-43.667 -39.333 -72 -45s-56.5 -5.66699 -84.5 0s-51.833 20.667 -71.5 45s-29.5 54.5 -29.5 90.5z" />
    <glyph glyph-name="Eth" unicode="&#xd0;" horiz-adv-x="1497" 
d="M-25 600l0.00292969 228.999h144v605h530c117.333 0 223.666 -18.167 318.999 -54.5s173.666 -86 234.999 -149s108.333 -135.833 141 -218.5s49 -171.667 49 -267c0 -80 -9.33301 -156.333 -28 -229s-47.834 -140.5 -87.501 -203.5s-88.334 -117.667 -146.001 -164
s-127.667 -82.666 -210 -108.999s-173.166 -39.5 -272.499 -39.5h-530v600h-144zM379.003 247.999h270.002c157.333 0 276.166 44.167 356.499 132.5s120.5 207.166 120.5 356.499c0 144.667 -40.833 256.334 -122.5 335.001s-199.834 118 -354.501 118h-270v-361h276v-229
h-276v-352z" />
    <glyph glyph-name="Ntilde" unicode="&#xd1;" horiz-adv-x="1515" 
d="M121 0v1434h219l702 -889v891h271v-1436h-168v-2l-754 969v-967h-270zM395 1661c58.667 144 146.667 202.669 264 176.002c15.333 -4 34 -11.167 56 -21.5s41.167 -19 57.5 -26s33.333 -12.167 51 -15.5s34 0 49 10s28.5 27 40.5 51l164 -78
c-28 -75.333 -65.167 -127.5 -111.5 -156.5s-95.166 -36.833 -146.499 -23.5c-16 4.66699 -35.167 13.167 -57.5 25.5s-41.5 22.5 -57.5 30.5s-33.333 13.667 -52 17s-36.334 -0.833984 -53.001 -12.501s-32.667 -31.834 -48 -60.501z" />
    <glyph glyph-name="Ograve" unicode="&#xd2;" horiz-adv-x="1607" 
d="M37 707c0 76.667 9.50195 151.17 28.502 223.503s48.5 140.666 88.5 204.999s88.5 120.666 145.5 168.999s126.333 86.666 208 114.999s170.5 42.5 266.5 42.5s184.667 -14.167 266 -42.5s150.666 -66.666 207.999 -114.999s106 -104.5 146 -168.5
s69.333 -132.167 88 -204.5s27.667 -146.5 27 -222.5s-10.334 -149.333 -29.001 -220s-47.667 -137.834 -87 -201.501s-87 -119.167 -143 -166.5s-124.833 -84.833 -206.5 -112.5s-171.5 -41.5 -269.5 -41.5s-187.833 13.667 -269.5 41s-151 64.333 -208 111
s-105.333 101.5 -145 164.5s-68.667 130.167 -87 201.5s-27.5 145.333 -27.5 222zM303.002 702.003c1.33301 -49.333 7.50098 -96.499 18.501 -141.499s28.667 -88.833 53 -131.5s54 -79.667 89 -111s79.167 -56.333 132.5 -75s112.666 -28 177.999 -28
s124.666 9.5 177.999 28.5s97.5 44.333 132.5 76s64.5 68.834 88.5 111.501s41.5 86.667 52.5 132s16.833 92.666 17.5 141.999c0.666992 50 -4.16602 98.833 -14.499 146.5s-27.666 93.667 -51.999 138s-54.333 83.333 -90 117s-80.334 60.5 -134.001 80.5
s-113.167 30 -178.5 30s-125 -10.167 -179 -30.5s-99 -47.333 -135 -81s-66.333 -72.834 -91 -117.501s-42.167 -91 -52.5 -139s-14.833 -97 -13.5 -147zM475.003 1878v10h295l152 -278v-13h-222z" />
    <glyph glyph-name="Oacute" unicode="&#xd3;" horiz-adv-x="1607" 
d="M37 707c0 -76.667 9.16504 -150.67 27.498 -222.003s47.333 -138.5 87 -201.5s88 -117.833 145 -164.5s126.333 -83.667 208 -111s171.5 -41 269.5 -41s187.833 13.833 269.5 41.5s150.5 65.167 206.5 112.5s103.667 102.833 143 166.5s68.333 130.834 87 201.501
s28.334 144 29.001 220s-8.33301 150.167 -27 222.5s-48 140.5 -88 204.5s-88.667 120.167 -146 168.5s-126.666 86.666 -207.999 114.999s-170 42.5 -266 42.5s-184.833 -14.167 -266.5 -42.5s-151 -66.666 -208 -114.999s-105.5 -104.666 -145.5 -168.999
s-69.5 -132.666 -88.5 -204.999s-28.5 -146.833 -28.5 -223.5zM302.998 701.997c-1.33301 50 3.16602 98.999 13.499 146.999s27.833 94.333 52.5 139s55 83.834 91 117.501s81 60.667 135 81s113.667 30.5 179 30.5s124.833 -10 178.5 -30s98.334 -46.833 134.001 -80.5
s65.667 -72.667 90 -117s41.666 -90.333 51.999 -138s15.166 -96.5 14.499 -146.5c-0.666992 -49.333 -6.5 -96.666 -17.5 -141.999s-28.5 -89.333 -52.5 -132s-53.5 -79.834 -88.5 -111.501s-79.167 -57 -132.5 -76s-112.666 -28.5 -177.999 -28.5
s-124.666 9.33301 -177.999 28s-97.5 43.667 -132.5 75s-64.667 68.333 -89 111s-42 86.5 -53 131.5s-17.167 92.167 -18.5 141.5zM656.997 1587v12l152 279h295v-10l-225 -281h-222z" />
    <glyph glyph-name="Ocircumflex" unicode="&#xd4;" horiz-adv-x="1607" 
d="M37 707c0 76.667 9.50195 151.17 28.502 223.503s48.5 140.666 88.5 204.999s88.5 120.666 145.5 168.999s126.333 86.666 208 114.999s170.5 42.5 266.5 42.5s184.667 -14.167 266 -42.5s150.666 -66.666 207.999 -114.999s106 -104.5 146 -168.5
s69.333 -132.167 88 -204.5s27.667 -146.5 27 -222.5s-10.334 -149.333 -29.001 -220s-47.667 -137.834 -87 -201.501s-87 -119.167 -143 -166.5s-124.833 -84.833 -206.5 -112.5s-171.5 -41.5 -269.5 -41.5s-187.833 13.667 -269.5 41s-151 64.333 -208 111
s-105.333 101.5 -145 164.5s-68.667 130.167 -87 201.5s-27.5 145.333 -27.5 222zM303.002 702.003c1.33301 -49.333 7.50098 -96.499 18.501 -141.499s28.667 -88.833 53 -131.5s54 -79.667 89 -111s79.167 -56.333 132.5 -75s112.666 -28 177.999 -28
s124.666 9.5 177.999 28.5s97.5 44.333 132.5 76s64.5 68.834 88.5 111.501s41.5 86.667 52.5 132s16.833 92.666 17.5 141.999c0.666992 50 -4.16602 98.833 -14.499 146.5s-27.666 93.667 -51.999 138s-54.333 83.333 -90 117s-80.334 60.5 -134.001 80.5
s-113.167 30 -178.5 30s-125 -10.167 -179 -30.5s-99 -47.333 -135 -81s-66.333 -72.834 -91 -117.501s-42.167 -91 -52.5 -139s-14.833 -97 -13.5 -147zM426.003 1589v13l303 282h137l303 -282v-13h-254l-118 121l-117 -121h-254z" />
    <glyph glyph-name="Otilde" unicode="&#xd5;" horiz-adv-x="1607" 
d="M37 707c0 76.667 9.50195 151.17 28.502 223.503s48.5 140.666 88.5 204.999s88.5 120.666 145.5 168.999s126.333 86.666 208 114.999s170.5 42.5 266.5 42.5s184.667 -14.167 266 -42.5s150.666 -66.666 207.999 -114.999s106 -104.5 146 -168.5
s69.333 -132.167 88 -204.5s27.667 -146.5 27 -222.5s-10.334 -149.333 -29.001 -220s-47.667 -137.834 -87 -201.501s-87 -119.167 -143 -166.5s-124.833 -84.833 -206.5 -112.5s-171.5 -41.5 -269.5 -41.5s-187.833 13.667 -269.5 41s-151 64.333 -208 111
s-105.333 101.5 -145 164.5s-68.667 130.167 -87 201.5s-27.5 145.333 -27.5 222zM303.002 702.003c1.33301 -49.333 7.50098 -96.499 18.501 -141.499s28.667 -88.833 53 -131.5s54 -79.667 89 -111s79.167 -56.333 132.5 -75s112.666 -28 177.999 -28
s124.666 9.5 177.999 28.5s97.5 44.333 132.5 76s64.5 68.834 88.5 111.501s41.5 86.667 52.5 132s16.833 92.666 17.5 141.999c0.666992 50 -4.16602 98.833 -14.499 146.5s-27.666 93.667 -51.999 138s-54.333 83.333 -90 117s-80.334 60.5 -134.001 80.5
s-113.167 30 -178.5 30s-125 -10.167 -179 -30.5s-99 -47.333 -135 -81s-66.333 -72.834 -91 -117.501s-42.167 -91 -52.5 -139s-14.833 -97 -13.5 -147zM451.003 1671c58.667 144 146.668 202.669 264.001 176.002c15.333 -4 34 -11.167 56 -21.5s41.167 -19 57.5 -26
s33.333 -12.167 51 -15.5s34 0 49 10s28.5 27 40.5 51l164 -78c-28 -75.333 -65.333 -127.5 -112 -156.5s-95.667 -36.833 -147 -23.5c-16 4.66699 -35.167 13.167 -57.5 25.5s-41.5 22.5 -57.5 30.5s-33.333 13.667 -52 17s-36.334 -0.833984 -53.001 -12.501
s-32.667 -31.834 -48 -60.501z" />
    <glyph glyph-name="Odieresis" unicode="&#xd6;" horiz-adv-x="1607" 
d="M37 707c0 -76.667 9.16504 -150.67 27.498 -222.003s47.333 -138.5 87 -201.5s88 -117.833 145 -164.5s126.333 -83.667 208 -111s171.5 -41 269.5 -41s187.833 13.833 269.5 41.5s150.5 65.167 206.5 112.5s103.667 102.833 143 166.5s68.333 130.834 87 201.501
s28.334 144 29.001 220s-8.33301 150.167 -27 222.5s-48 140.5 -88 204.5s-88.667 120.167 -146 168.5s-126.666 86.666 -207.999 114.999s-170 42.5 -266 42.5s-184.833 -14.167 -266.5 -42.5s-151 -66.666 -208 -114.999s-105.5 -104.666 -145.5 -168.999
s-69.5 -132.666 -88.5 -204.999s-28.5 -146.833 -28.5 -223.5zM302.998 701.997c-1.33301 50 3.16602 98.999 13.499 146.999s27.833 94.333 52.5 139s55 83.834 91 117.501s81 60.667 135 81s113.667 30.5 179 30.5s124.833 -10 178.5 -30s98.334 -46.833 134.001 -80.5
s65.667 -72.667 90 -117s41.666 -90.333 51.999 -138s15.166 -96.5 14.499 -146.5c-0.666992 -49.333 -6.5 -96.666 -17.5 -141.999s-28.5 -89.333 -52.5 -132s-53.5 -79.834 -88.5 -111.501s-79.167 -57 -132.5 -76s-112.666 -28.5 -177.999 -28.5
s-124.666 9.33301 -177.999 28s-97.5 43.667 -132.5 75s-64.667 68.333 -89 111s-42 86.5 -53 131.5s-17.167 92.167 -18.5 141.5zM392.997 1716c0 26 5.33008 49.167 15.9971 69.5s24.334 35.833 41.001 46.5s35.167 18.5 55.5 23.5s40.833 5 61.5 0
s39.334 -12.833 56.001 -23.5s30.334 -26.167 41.001 -46.5s16 -43.5 16 -69.5c0 -36 -9.83301 -66.167 -29.5 -90.5s-43.667 -39.333 -72 -45s-56.5 -5.66699 -84.5 0s-51.833 20.667 -71.5 45s-29.5 54.5 -29.5 90.5zM896.994 1716c0 26 5.33008 49.167 15.9971 69.5
s24.334 35.833 41.001 46.5s35.167 18.5 55.5 23.5s40.833 5 61.5 0s39.334 -12.833 56.001 -23.5s30.334 -26.167 41.001 -46.5s16 -43.5 16 -69.5c0 -36 -9.83301 -66.167 -29.5 -90.5s-43.667 -39.333 -72 -45s-56.5 -5.66699 -84.5 0s-51.833 20.667 -71.5 45
s-29.5 54.5 -29.5 90.5z" />
    <glyph glyph-name="multiply" unicode="&#xd7;" horiz-adv-x="911" 
d="M86 453l201 196l-197 197l166 160l190 -199l199 203l156 -156l-205 -211l211 -209l-156 -149l-207 209l-196 -203z" />
    <glyph glyph-name="Oslash" unicode="&#xd8;" horiz-adv-x="1607" 
d="M37 707c0 76.667 9.50293 151.17 28.5029 223.503s48.5 140.666 88.5 204.999s88.5 120.666 145.5 168.999s126.333 86.666 208 114.999s170.5 42.5 266.5 42.5c97.333 0 190.333 -15.667 279 -47l92 154h262l-160 -266c86 -70.667 151.5 -158.667 196.5 -264
s66.833 -215.333 65.5 -330c-0.666992 -76 -10.334 -149.333 -29.001 -220s-47.667 -137.834 -87 -201.501s-87 -119.167 -143 -166.5s-124.833 -84.833 -206.5 -112.5s-171.5 -41.5 -269.5 -41.5c-110.667 0 -210.334 17 -299.001 51l-100 -165h-260l168 278
c-80.667 68.667 -141.834 153.334 -183.501 254.001s-62.5 208 -62.5 322zM303.003 702.003c1.33301 -63.333 11.667 -124.666 31 -183.999s48 -111.333 86 -156l502 834c-52.667 14 -102 21 -148 21c-65.333 0 -125 -10.167 -179 -30.5s-99 -47.333 -135 -81
s-66.333 -72.834 -91 -117.501s-42.167 -91 -52.5 -139s-14.833 -97 -13.5 -147zM606.004 238.003c53.333 -15.333 109.334 -23 168.001 -23c65.333 0 124.666 9.5 177.999 28.5s97.5 44.333 132.5 76s64.5 68.834 88.5 111.501s41.5 86.667 52.5 132
s16.833 92.666 17.5 141.999c1.33301 69.333 -9 137 -31 203s-55.333 123 -100 171z" />
    <glyph glyph-name="Ugrave" unicode="&#xd9;" horiz-adv-x="1521" 
d="M100 610v822h269v-822c0 -126.667 33.167 -224.167 99.5 -292.5s156.5 -102.5 270.5 -102.5c110.667 0 196.834 35 258.501 105s92.5 166.667 92.5 290v822h268v-822c0 -104 -15.333 -196.833 -46 -278.5s-73.834 -148.834 -129.501 -201.501
s-121.167 -92.667 -196.5 -120s-158.333 -41 -249 -41c-87.333 0 -169 13.333 -245 40s-143.333 65.834 -202 117.501s-105 119 -139 202s-51 176.833 -51 281.5zM444 1878v10h295l152 -278v-13h-221z" />
    <glyph glyph-name="Uacute" unicode="&#xda;" horiz-adv-x="1521" 
d="M100 610c0 -104.667 17 -198.5 51 -281.5s80.333 -150.333 139 -202s126 -90.834 202 -117.501s157.667 -40 245 -40c90.667 0 173.667 13.667 249 41s140.833 67.333 196.5 120s98.834 119.834 129.501 201.501s46 174.5 46 278.5v822h-268v-822
c0 -123.333 -30.833 -220 -92.5 -290s-147.834 -105 -258.501 -105c-114 0 -204.167 34.167 -270.5 102.5s-99.5 165.833 -99.5 292.5v822h-269v-822zM608 1595v13l152 278h295v-10l-226 -281h-221z" />
    <glyph glyph-name="Ucircumflex" unicode="&#xdb;" horiz-adv-x="1521" 
d="M100 610v822h269v-822c0 -126.667 33.167 -224.167 99.5 -292.5s156.5 -102.5 270.5 -102.5c110.667 0 196.834 35 258.501 105s92.5 166.667 92.5 290v822h268v-822c0 -104 -15.333 -196.833 -46 -278.5s-73.834 -148.834 -129.501 -201.501
s-121.167 -92.667 -196.5 -120s-158.333 -41 -249 -41c-87.333 0 -169 13.333 -245 40s-143.333 65.834 -202 117.501s-105 119 -139 202s-51 176.833 -51 281.5zM365 1591v13l303 282h137l303 -282v-13h-254l-119 121l-117 -121h-253z" />
    <glyph glyph-name="Udieresis" unicode="&#xdc;" horiz-adv-x="1521" 
d="M100 610c0 -104.667 17 -198.5 51 -281.5s80.333 -150.333 139 -202s126 -90.834 202 -117.501s157.667 -40 245 -40c90.667 0 173.667 13.667 249 41s140.833 67.333 196.5 120s98.834 119.834 129.501 201.501s46 174.5 46 278.5v822h-268v-822
c0 -123.333 -30.833 -220 -92.5 -290s-147.834 -105 -258.501 -105c-114 0 -204.167 34.167 -270.5 102.5s-99.5 165.833 -99.5 292.5v822h-269v-822zM352 1710c0 26 5.33008 49.167 15.9971 69.5s24.334 35.833 41.001 46.5s35.334 18.5 56.001 23.5s41.167 5 61.5 0
s38.833 -12.833 55.5 -23.5s30.334 -26.167 41.001 -46.5s16 -43.5 16 -69.5c0 -36 -9.83301 -66.167 -29.5 -90.5s-43.667 -39.333 -72 -45s-56.5 -5.66699 -84.5 0s-51.833 20.667 -71.5 45s-29.5 54.5 -29.5 90.5zM861.997 1710c0 26 5.33008 49.167 15.9971 69.5
s24.334 35.833 41.001 46.5s35.334 18.5 56.001 23.5s41.167 5 61.5 0s38.833 -12.833 55.5 -23.5s30.334 -26.167 41.001 -46.5s16 -43.5 16 -69.5c0 -36 -9.83301 -66.167 -29.5 -90.5s-43.5 -39.333 -71.5 -45s-56.167 -5.66699 -84.5 0s-52.333 20.667 -72 45
s-29.5 54.5 -29.5 90.5z" />
    <glyph glyph-name="Yacute" unicode="&#xdd;" horiz-adv-x="1472" 
d="M18 1421l551 -829v-592h271v592l571 829v13h-326l-380 -592l-365 592h-322v-13zM578 1579v12l151 279h295v-10l-225 -281h-221z" />
    <glyph glyph-name="Thorn" unicode="&#xde;" horiz-adv-x="1384" 
d="M100 0l2 1432h267v-234h407c68 0 131 -9 189 -27s107.333 -42.333 148 -73s75.5 -66.5 104.5 -107.5s50.167 -84.5 63.5 -130.5s20 -93.333 20 -142s-6.66699 -96 -20 -142s-34.5 -89.5 -63.5 -130.5s-63.833 -76.833 -104.5 -107.5s-90 -55 -148 -73s-121 -27 -189 -27
h-405v-238h-271zM371 479l405.001 -0.000976562c47.333 0 89.666 8.66699 126.999 26s65.5 39.833 84.5 67.5s33 58.167 42 91.5s9 66.833 0 100.5s-23.167 64.334 -42.5 92.001s-47.5 50.167 -84.5 67.5s-79.167 26 -126.5 26h-405v-471z" />
    <glyph glyph-name="germandbls" unicode="&#xdf;" horiz-adv-x="1290" 
d="M127 0l0.000976562 1053c0 64.667 14.333 123.167 43 175.5s66.5 94.666 113.5 126.999s99 57.166 156 74.499s115.167 26 174.5 26c64 0 124.667 -8.5 182 -25.5s108.833 -41.5 154.5 -73.5s82 -74 109 -126s40.5 -110.667 40.5 -176
c0 -58.667 -19.333 -111.5 -58 -158.5s-91.667 -78.167 -159 -93.5c57.333 -13.333 107.5 -33.833 150.5 -61.5s76.167 -59 99.5 -94s40.666 -70 51.999 -105s17 -69.833 17 -104.5c0 -62 -8.5 -118.667 -25.5 -170s-40.833 -95.166 -71.5 -131.499
s-67.167 -66.833 -109.5 -91.5s-89 -42.167 -140 -52.5s-105.333 -14.666 -163 -12.999s-117.167 9.83398 -178.5 24.501l-2 227c74 -17.333 137.833 -24.333 191.5 -21s97.667 16 132 38s59.666 48.333 75.999 79s24.5 65 24.5 103c0 52 -16.333 97.667 -49 137
s-73.167 68.333 -121.5 87s-99.5 28 -153.5 28h-96v238h90c36.667 0 71 3.66699 103 11s60.833 21.666 86.5 42.999s39.167 48.333 40.5 81c2 39.333 -8.5 72.333 -31.5 99s-50.5 45.167 -82.5 55.5s-66.667 15.5 -104 15.5c-65.333 0 -118.666 -15 -159.999 -45
s-63 -71.667 -65 -125v-482c0 -54.667 0.333008 -151 1 -289s1 -232.667 1 -284h-268z" />
    <glyph glyph-name="agrave" unicode="&#xe0;" horiz-adv-x="1251" 
d="M27 506c0 112.667 23.501 209.5 70.501 290.5s109.667 141 188 180s167.5 58.167 267.5 57.5c68 0 131.5 -14.833 190.5 -44.5s102.5 -69.5 130.5 -119.5l9 140h239v-1010h-235l-13 147c-26.667 -55.333 -72 -98.5 -136 -129.5s-127.667 -47.167 -191 -48.5
c-100.667 -0.666992 -189.834 18.833 -267.501 58.5s-139.167 100.5 -184.5 182.5s-68 180.667 -68 296zM276.001 506c0 -94 28.333 -168.671 85 -224.004s128 -83 214 -83c47.333 0 90.166 8.83301 128.499 26.5s69.333 40.834 93 69.501s41.834 61.334 54.501 98.001
s19 74 19 112s-6.33301 75.333 -19 112s-30.834 69.334 -54.501 98.001s-54.667 51.834 -93 69.501s-81.166 26.5 -128.499 26.5c-86 0 -157.333 -27.333 -214 -82s-85 -129 -85 -223zM287.001 1442v10h295l151 -278v-13h-221z" />
    <glyph glyph-name="aacute" unicode="&#xe1;" horiz-adv-x="1251" 
d="M27 506c0 -115.333 22.666 -214 67.999 -296s106.833 -142.833 184.5 -182.5s166.834 -59.167 267.501 -58.5c63.333 1.33301 127 17.5 191 48.5s109.333 74.167 136 129.5l13 -147h235v1010h-239l-9 -140c-28 50 -71.5 89.833 -130.5 119.5s-122.5 44.5 -190.5 44.5
c-100 0.666992 -189.167 -18.5 -267.5 -57.5s-141 -99 -188 -180s-70.5 -177.833 -70.5 -290.5zM275.999 506c0 94 28.333 168.337 85 223.004s128 82 214 82c47.333 0 90.166 -8.83301 128.499 -26.5s69.333 -40.834 93 -69.501s41.834 -61.334 54.501 -98.001
s19 -74 19 -112s-6.33301 -75.333 -19 -112s-30.834 -69.334 -54.501 -98.001s-54.667 -51.834 -93 -69.501s-81.166 -26.5 -128.499 -26.5c-86 0 -157.333 27.667 -214 83s-85 130 -85 224zM413.999 1163v13l151 278h295v-10l-225 -281h-221z" />
    <glyph glyph-name="acircumflex" unicode="&#xe2;" horiz-adv-x="1251" 
d="M27 506c0 112.667 23.501 209.5 70.501 290.5s109.667 141 188 180s167.5 58.167 267.5 57.5c68 0 131.5 -14.833 190.5 -44.5s102.5 -69.5 130.5 -119.5l9 140h239v-1010h-235l-13 147c-26.667 -55.333 -72 -98.5 -136 -129.5s-127.667 -47.167 -191 -48.5
c-100.667 -0.666992 -189.834 18.833 -267.501 58.5s-139.167 100.5 -184.5 182.5s-68 180.667 -68 296zM244.001 1165v13l303 282h137l303 -282v-13h-254l-119 121l-116 -121h-254zM276.001 506c0 -94 28.333 -168.671 85 -224.004s128 -83 214 -83
c47.333 0 90.166 8.83301 128.499 26.5s69.333 40.834 93 69.501s41.834 61.334 54.501 98.001s19 74 19 112s-6.33301 75.333 -19 112s-30.834 69.334 -54.501 98.001s-54.667 51.834 -93 69.501s-81.166 26.5 -128.499 26.5c-86 0 -157.333 -27.333 -214 -82
s-85 -129 -85 -223z" />
    <glyph glyph-name="atilde" unicode="&#xe3;" horiz-adv-x="1251" 
d="M27 506c0 112.667 23.501 209.5 70.501 290.5s109.667 141 188 180s167.5 58.167 267.5 57.5c68 0 131.5 -14.833 190.5 -44.5s102.5 -69.5 130.5 -119.5l9 140h239v-1010h-235l-13 147c-26.667 -55.333 -72 -98.5 -136 -129.5s-127.667 -47.167 -191 -48.5
c-100.667 -0.666992 -189.834 18.833 -267.501 58.5s-139.167 100.5 -184.5 182.5s-68 180.667 -68 296zM274.001 1282c58.667 144.667 147 203.335 265 176.002c15.333 -4 34 -11.167 56 -21.5s41.167 -19 57.5 -26s33.333 -12.167 51 -15.5s34 0 49 10s28.5 27 40.5 51
l163 -78c-28 -75.333 -65.167 -127.5 -111.5 -156.5s-95.166 -36.833 -146.499 -23.5c-16 4.66699 -35.167 13.167 -57.5 25.5s-41.5 22.5 -57.5 30.5s-33.333 13.667 -52 17s-36.334 -0.833984 -53.001 -12.501s-32.667 -31.834 -48 -60.501zM276.001 506.001
c0 -94 28.333 -168.671 85 -224.004s128 -83 214 -83c47.333 0 90.166 8.83301 128.499 26.5s69.333 40.834 93 69.501s41.834 61.334 54.501 98.001s19 74 19 112s-6.33301 75.333 -19 112s-30.834 69.334 -54.501 98.001s-54.667 51.834 -93 69.501
s-81.166 26.5 -128.499 26.5c-86 0 -157.333 -27.333 -214 -82s-85 -129 -85 -223z" />
    <glyph glyph-name="adieresis" unicode="&#xe4;" horiz-adv-x="1251" 
d="M27 506c0 -115.333 22.666 -214 67.999 -296s106.833 -142.833 184.5 -182.5s166.834 -59.167 267.501 -58.5c63.333 1.33301 127 17.5 191 48.5s109.333 74.167 136 129.5l13 -147h235v1010h-239l-9 -140c-28 50 -71.5 89.833 -130.5 119.5s-122.5 44.5 -190.5 44.5
c-100 0.666992 -189.167 -18.5 -267.5 -57.5s-141 -99 -188 -180s-70.5 -177.833 -70.5 -290.5zM224.999 1341c0 26 5.33008 49.167 15.9971 69.5s24.334 35.833 41.001 46.5s35.167 18.5 55.5 23.5s40.833 5 61.5 0s39.334 -12.833 56.001 -23.5
s30.334 -26.167 41.001 -46.5s16 -43.5 16 -69.5c0 -36 -9.83301 -66.167 -29.5 -90.5s-43.667 -39.333 -72 -45s-56.5 -5.66699 -84.5 0s-51.833 20.667 -71.5 45s-29.5 54.5 -29.5 90.5zM275.996 506c0 94 28.333 168.337 85 223.004s128 82 214 82
c47.333 0 90.166 -8.83301 128.499 -26.5s69.333 -40.834 93 -69.501s41.834 -61.334 54.501 -98.001s19 -74 19 -112s-6.33301 -75.333 -19 -112s-30.834 -69.334 -54.501 -98.001s-54.667 -51.834 -93 -69.501s-81.166 -26.5 -128.499 -26.5
c-86 0 -157.333 27.667 -214 83s-85 130 -85 224zM734.996 1341c0 26 5.33008 49.167 15.9971 69.5s24.334 35.833 41.001 46.5s35.167 18.5 55.5 23.5s40.833 5 61.5 0s39.334 -12.833 56.001 -23.5s30.334 -26.167 41.001 -46.5s16 -43.5 16 -69.5
c0 -36 -9.83301 -66.167 -29.5 -90.5s-43.667 -39.333 -72 -45s-56.5 -5.66699 -84.5 0s-51.833 20.667 -71.5 45s-29.5 54.5 -29.5 90.5z" />
    <glyph glyph-name="aring" unicode="&#xe5;" horiz-adv-x="1251" 
d="M27 506c0 112.667 23.501 209.5 70.501 290.5s109.667 141 188 180s167.5 58.167 267.5 57.5c68 0 131.5 -14.833 190.5 -44.5s102.5 -69.5 130.5 -119.5l9 140h239v-1010h-235l-13 147c-26.667 -55.333 -72 -98.5 -136 -129.5s-127.667 -47.167 -191 -48.5
c-100.667 -0.666992 -189.834 18.833 -267.501 58.5s-139.167 100.5 -184.5 182.5s-68 180.667 -68 296zM276.001 506c0 -94 28.333 -168.671 85 -224.004s128 -83 214 -83c47.333 0 90.166 8.83301 128.499 26.5s69.333 40.834 93 69.501s41.834 61.334 54.501 98.001
s19 74 19 112s-6.33301 75.333 -19 112s-30.834 69.334 -54.501 98.001s-54.667 51.834 -93 69.501s-81.166 26.5 -128.499 26.5c-86 0 -157.333 -27.333 -214 -82s-85 -129 -85 -223zM330.001 1382c0 74.667 26.167 133 78.5 175s113.5 63 183.5 63s130.833 -21 182.5 -63
s77.5 -100.333 77.5 -175s-25.833 -132.834 -77.5 -174.501s-112.5 -62.5 -182.5 -62.5s-131.167 20.833 -183.5 62.5s-78.5 99.834 -78.5 174.501zM473.501 1384.5c0.333008 -25 10.6689 -48 31.002 -69s48.166 -31.5 83.499 -31.5c37.333 0 66.166 10.5 86.499 31.5
s30.333 44 30 69s-11 48 -32 69s-49.167 31.5 -84.5 31.5c-36 0 -64.167 -10.5 -84.5 -31.5s-30.333 -44 -30 -69z" />
    <glyph glyph-name="ae" unicode="&#xe6;" horiz-adv-x="2000" 
d="M14 506c0 112.667 23.668 209.501 71.001 290.501s110.166 141 188.499 180s167.5 58.167 267.5 57.5c68 0 131.5 -14.833 190.5 -44.5s102.5 -69.5 130.5 -119.5l8 140h189v-127c80.667 106 197.334 157.667 350.001 155c55.333 -1.33301 109.5 -11.5 162.5 -30.5
s101.667 -46.167 146 -81.5s81.666 -78.333 111.999 -129s50.5 -107.834 60.5 -171.501s7.33301 -133.5 -8 -209.5h-788c8 -64 38.667 -115.833 92 -155.5s123 -59.5 209 -59.5c48.667 0 99 8.66699 151 26s91.667 40 119 68l160 -158
c-50.667 -53.333 -115.334 -94 -194.001 -122s-158.667 -42 -240 -42c-152 0 -262.667 52.667 -332 158l-10 -131h-185l-2 147c-26.667 -55.333 -72 -98.5 -136 -129.5s-127.667 -47.167 -191 -48.5c-101.333 -0.666992 -190.666 18.833 -267.999 58.5
s-138.833 100.667 -184.5 183s-68.5 180.833 -68.5 295.5zM264.001 506.001c0 -94 28.333 -168.671 85 -224.004s128 -83 214 -83c49.333 0 94 8.83301 134 26.5s72.333 40.834 97 69.501s43.667 61.334 57 98.001s20 74 20 112s-6.66699 75.333 -20 112
s-32.333 69.334 -57 98.001s-57 51.834 -97 69.501s-84.667 26.5 -134 26.5c-86 0 -157.333 -27.333 -214 -82s-85 -129 -85 -223zM1098 622.997h543.999c-8 64 -35.333 112.667 -82 146s-106.667 50 -180 50c-69.333 0 -129.166 -16.667 -179.499 -50
s-84.5 -82 -102.5 -146z" />
    <glyph glyph-name="ccedilla" unicode="&#xe7;" horiz-adv-x="976" 
d="M23 504c0 87.333 14.1641 165.333 42.4971 234s67 124.667 116 168s105.5 76.166 169.5 98.499s133.333 33.5 208 33.5c73.333 0 138.833 -11.5 196.5 -34.5s113.834 -61.167 168.501 -114.5l-158 -166c-59.333 53.333 -127 80 -203 80
c-84.667 0 -154.334 -28 -209.001 -84s-82 -127.667 -82 -215c0 -92.667 27.333 -165 82 -217s123 -78 205 -78c91.333 0 165 28 221 84l168 -164c-55.333 -54.667 -112.5 -94.5 -171.5 -119.5s-124.5 -38.5 -196.5 -40.5l-25 -78
c44.667 -1.33301 82.834 -9.33301 114.501 -24s54.334 -33 68.001 -55s23.5 -46.333 29.5 -73s5.66699 -52.334 -1 -77.001c-8 -36.667 -24.333 -68.834 -49 -96.501s-53.5 -48.667 -86.5 -63s-69.167 -23.166 -108.5 -26.499s-77.333 -0.666016 -114 8.00098
s-71.667 23.667 -105 45s-60 48 -80 80l109 90c19.333 -25.333 46.833 -43.5 82.5 -54.5s69.334 -12.333 101.001 -4s51.5 25.166 59.5 50.499c7.33301 24.667 1.5 45.834 -17.5 63.501s-42.833 27 -71.5 28s-57 -6.5 -85 -22.5l-59 45l64 183
c-116 26.667 -208.833 83.834 -278.5 171.501s-104.5 202.5 -104.5 344.5z" />
    <glyph glyph-name="egrave" unicode="&#xe8;" horiz-adv-x="1193" 
d="M37 512c0 155.333 48.835 282.168 146.502 380.501s227.5 147.5 389.5 147.5c174 0 307.167 -53.333 399.5 -160s129.166 -261.334 110.499 -464.001h-788c8 -64 38.667 -115.833 92 -155.5s123 -59.5 209 -59.5c48.667 0 99 8.66699 151 26s91.667 40 119 68l160 -158
c-50.667 -53.333 -115.334 -94 -194.001 -122s-158.667 -42 -240 -42c-172 0 -307.5 48.833 -406.5 146.5s-148.5 228.5 -148.5 392.5zM272.002 1450v10h295l152 -278v-13h-221zM299.002 623.002h545c-8 64 -35.333 112.667 -82 146s-106.667 50 -180 50
c-69.333 0 -129.333 -16.667 -180 -50s-85 -82 -103 -146z" />
    <glyph glyph-name="eacute" unicode="&#xe9;" horiz-adv-x="1193" 
d="M37 512c0 -164 49.498 -294.835 148.498 -392.502s234.5 -146.5 406.5 -146.5c81.333 0 161.333 14 240 42s143.334 68.667 194.001 122l-160 158c-27.333 -28 -67 -50.667 -119 -68s-102.333 -26 -151 -26c-86 0 -155.667 19.833 -209 59.5s-84 91.5 -92 155.5h788
c18.667 202.667 -18.166 357.334 -110.499 464.001s-225.5 160 -399.5 160c-162 0 -291.833 -49.167 -389.5 -147.5s-146.5 -225.166 -146.5 -380.499zM298.998 622.998c18 64 52.333 112.667 103 146s110.667 50 180 50c73.333 0 133.333 -16.667 180 -50s74 -82 82 -146
h-545zM421.998 1174v12l151 278h295v-10l-225 -280h-221z" />
    <glyph glyph-name="ecircumflex" unicode="&#xea;" horiz-adv-x="1193" 
d="M37 512c0 155.333 48.835 282.168 146.502 380.501s227.5 147.5 389.5 147.5c174 0 307.167 -53.333 399.5 -160s129.166 -261.334 110.499 -464.001h-788c8 -64 38.667 -115.833 92 -155.5s123 -59.5 209 -59.5c48.667 0 99 8.66699 151 26s91.667 40 119 68l160 -158
c-50.667 -53.333 -115.334 -94 -194.001 -122s-158.667 -42 -240 -42c-172 0 -307.5 48.833 -406.5 146.5s-148.5 228.5 -148.5 392.5zM215.002 1165v13l303 282h137l303 -282v-13h-253l-119 121l-117 -121h-254zM299.002 623.002h545c-8 64 -35.333 112.667 -82 146
s-106.667 50 -180 50c-69.333 0 -129.333 -16.667 -180 -50s-85 -82 -103 -146z" />
    <glyph glyph-name="edieresis" unicode="&#xeb;" horiz-adv-x="1193" 
d="M37 512c0 -164 49.498 -294.835 148.498 -392.502s234.5 -146.5 406.5 -146.5c81.333 0 161.333 14 240 42s143.334 68.667 194.001 122l-160 158c-27.333 -28 -67 -50.667 -119 -68s-102.333 -26 -151 -26c-86 0 -155.667 19.833 -209 59.5s-84 91.5 -92 155.5h788
c18.667 202.667 -18.166 357.334 -110.499 464.001s-225.5 160 -399.5 160c-162 0 -291.833 -49.167 -389.5 -147.5s-146.5 -225.166 -146.5 -380.499zM228.998 1313c0 26 5.33008 49.167 15.9971 69.5s24.334 35.833 41.001 46.5s35.167 18.5 55.5 23.5s40.833 5 61.5 0
s39.334 -12.833 56.001 -23.5s30.334 -26.167 41.001 -46.5s16 -43.5 16 -69.5c0 -36 -9.83301 -66.167 -29.5 -90.5s-43.667 -39.333 -72 -45s-56.5 -5.66699 -84.5 0s-51.833 20.667 -71.5 45s-29.5 54.5 -29.5 90.5zM298.995 622.998c18 64 52.333 112.667 103 146
s110.667 50 180 50c73.333 0 133.333 -16.667 180 -50s74 -82 82 -146h-545zM665.995 1313c0 30 7 56.167 21 78.5s31.667 38.5 53 48.5s44.333 15 69 15s47.667 -5 69 -15s39 -26.167 53 -48.5s21 -48.5 21 -78.5c0 -44.667 -14.833 -79.5 -44.5 -104.5
s-62.5 -37.5 -98.5 -37.5s-68.833 12.5 -98.5 37.5s-44.5 59.833 -44.5 104.5z" />
    <glyph glyph-name="igrave" unicode="&#xec;" horiz-adv-x="487" 
d="M-8 1419v11h268l86 -291v-13h-203zM82 0v975h262v-975h-262z" />
    <glyph glyph-name="iacute" unicode="&#xed;" horiz-adv-x="487" 
d="M82 0h262v975h-262v-975zM88 1126v13l86 291h268v-11l-151 -293h-203z" />
    <glyph glyph-name="icircumflex" unicode="&#xee;" horiz-adv-x="487" 
d="M-100 1130v13l266 299h119l266 -299v-13h-223l-103 127l-102 -127h-223zM82 0v975h262v-975h-262z" />
    <glyph glyph-name="idieresis" unicode="&#xef;" horiz-adv-x="487" 
d="M-102 1309c0 26 5.33203 49.167 15.999 69.5s24.334 35.833 41.001 46.5s35.167 18.5 55.5 23.5s40.666 5 60.999 0s38.833 -12.833 55.5 -23.5s30.334 -26.167 41.001 -46.5s16 -43.5 16 -69.5c0 -44.667 -14.833 -79.5 -44.5 -104.5s-62.5 -37.5 -98.5 -37.5
s-68.833 12.5 -98.5 37.5s-44.5 59.833 -44.5 104.5zM81.999 0h262v975h-262v-975zM275.999 1309c0 26 5.33008 49.167 15.9971 69.5s24.334 35.833 41.001 46.5s35.167 18.5 55.5 23.5s40.833 5 61.5 0s39.334 -12.833 56.001 -23.5s30.334 -26.167 41.001 -46.5
s16 -43.5 16 -69.5c0 -36 -9.83301 -66.167 -29.5 -90.5s-43.667 -39.333 -72 -45s-56.5 -5.66699 -84.5 0s-51.833 20.667 -71.5 45s-29.5 54.5 -29.5 90.5z" />
    <glyph glyph-name="eth" unicode="&#xf0;" horiz-adv-x="1204" 
d="M66 487c0 56.667 8.66992 111.499 26.0029 164.499s42.333 101.833 75 146.5s75.167 83 127.5 115s111.166 54 176.499 66c57.333 8 116.166 6.33301 176.499 -5s106.5 -31 138.5 -59c-16.667 44 -48.5 86.5 -95.5 127.5s-83.167 64.833 -108.5 71.5l-64 -72l-121 80
l54 64c-36 21.333 -92 37 -168 47l45 203c100 -13.333 190 -38 270 -74l88 104l123 -88l-76 -88c137.333 -108 234.166 -224 290.499 -348s84.5 -266.667 84.5 -428c0 -158.667 -46.5 -287 -139.5 -385s-219.833 -147 -380.5 -147c-84 0 -159.833 14.167 -227.5 42.5
s-122.5 66.333 -164.5 114s-74.167 101.334 -96.5 161.001s-33.5 122.167 -33.5 187.5zM322.003 488.999c0 -77.333 23.501 -144 70.501 -200s112.167 -84 195.5 -84s148.166 28 194.499 84s69.5 122.667 69.5 200c0 48.667 -9.5 94 -28.5 136s-49 77 -90 105
s-89.5 42 -145.5 42c-83.333 0 -148.5 -28.167 -195.5 -84.5s-70.5 -122.5 -70.5 -198.5z" />
    <glyph glyph-name="ntilde" unicode="&#xf1;" horiz-adv-x="1230" 
d="M76 0l-0.00195312 1012h223l16 -138c103.333 101.333 214 152 332 152c123.333 0 225.5 -44.167 306.5 -132.5s121.5 -209.5 121.5 -363.5v-530h-250v528c0 80 -21.167 145.167 -63.5 195.5s-102.166 75.5 -179.499 75.5c-75.333 0 -137.166 -27.5 -185.499 -82.5
s-72.5 -121.833 -72.5 -200.5v-516h-248zM226.998 1288c58.667 144.667 147 203.335 265 176.002c15.333 -4 34 -11.167 56 -21.5l57 -26c16 -7 32.833 -12.167 50.5 -15.5s34 0 49 10s28.5 27 40.5 51l164 -78c-28 -75.333 -65.167 -127.5 -111.5 -156.5
s-95.166 -36.833 -146.499 -23.5c-16 4.66699 -35.167 13.167 -57.5 25.5s-41.5 22.5 -57.5 30.5s-33.333 13.667 -52 17s-36.334 -0.833984 -53.001 -12.501s-32.667 -31.834 -48 -60.501z" />
    <glyph glyph-name="ograve" unicode="&#xf2;" horiz-adv-x="1175" 
d="M35 504c0 96.667 20.834 184.666 62.501 263.999s102.5 142.833 182.5 190.5s172.333 71.5 277 71.5s197.5 -23.833 278.5 -71.5s142.833 -111.167 185.5 -190.5s64 -167.333 64 -264c0 -97.333 -20.667 -185.666 -62 -264.999s-102.333 -142.833 -183 -190.5
s-174.334 -71.5 -281.001 -71.5c-106 0 -199.333 23.833 -280 71.5s-141.5 111 -182.5 190s-61.5 167.5 -61.5 265.5zM264.001 1436v10h295l152 -279v-12h-222zM285.001 503.999c0 -52.667 9.83203 -101 29.499 -145s50.834 -80.333 93.501 -109s93 -43 151 -43
c86.667 0 154.167 29 202.5 87s72.5 128 72.5 210c0 80 -25.667 149.833 -77 209.5s-117.333 89.5 -198 89.5c-85.333 0 -152.333 -29.5 -201 -88.5s-73 -129.167 -73 -210.5z" />
    <glyph glyph-name="oacute" unicode="&#xf3;" horiz-adv-x="1175" 
d="M35 504c0 -98 20.499 -186.499 61.499 -265.499s101.833 -142.333 182.5 -190s174 -71.5 280 -71.5c106.667 0 200.334 23.833 281.001 71.5s141.667 111.167 183 190.5s62 167.666 62 264.999c0 96.667 -21.333 184.667 -64 264s-104.5 142.833 -185.5 190.5
s-173.833 71.5 -278.5 71.5s-197 -23.833 -277 -71.5s-140.833 -111.167 -182.5 -190.5s-62.5 -167.333 -62.5 -264zM284.999 504.001c0 81.333 24.334 151.5 73.001 210.5s115.667 88.5 201 88.5c80.667 0 146.667 -29.833 198 -89.5s77 -129.5 77 -209.5
c0 -82 -24.167 -152 -72.5 -210s-115.833 -87 -202.5 -87c-58 0 -108.333 14.333 -151 43s-73.834 65 -93.501 109s-29.5 92.333 -29.5 145zM434 1151v12l152 279h295v-10l-226 -281h-221z" />
    <glyph glyph-name="ocircumflex" unicode="&#xf4;" horiz-adv-x="1175" 
d="M35 504c0 96.667 20.834 184.666 62.501 263.999s102.5 142.833 182.5 190.5s172.333 71.5 277 71.5s197.5 -23.833 278.5 -71.5s142.833 -111.167 185.5 -190.5s64 -167.333 64 -264c0 -97.333 -20.667 -185.666 -62 -264.999s-102.333 -142.833 -183 -190.5
s-174.334 -71.5 -281.001 -71.5c-106 0 -199.333 23.833 -280 71.5s-141.5 111 -182.5 190s-61.5 167.5 -61.5 265.5zM186.001 1145v12l303 283h138l303 -283v-12h-254l-119 121l-117 -121h-254zM285.001 503.999c0 -52.667 9.83203 -101 29.499 -145
s50.834 -80.333 93.501 -109s93 -43 151 -43c86.667 0 154.167 29 202.5 87s72.5 128 72.5 210c0 80 -25.667 149.833 -77 209.5s-117.333 89.5 -198 89.5c-85.333 0 -152.333 -29.5 -201 -88.5s-73 -129.167 -73 -210.5z" />
    <glyph glyph-name="otilde" unicode="&#xf5;" horiz-adv-x="1175" 
d="M35 504c0 96.667 20.834 184.666 62.501 263.999s102.5 142.833 182.5 190.5s172.333 71.5 277 71.5s197.5 -23.833 278.5 -71.5s142.833 -111.167 185.5 -190.5s64 -167.333 64 -264c0 -97.333 -20.667 -185.666 -62 -264.999s-102.333 -142.833 -183 -190.5
s-174.334 -71.5 -281.001 -71.5c-106 0 -199.333 23.833 -280 71.5s-141.5 111 -182.5 190s-61.5 167.5 -61.5 265.5zM223.001 1274c58.667 144 146.667 202.669 264 176.002c15.333 -4 34 -11.167 56 -21.5s41.167 -19 57.5 -26s33.333 -12.167 51 -15.5s34 0 49 10
s28.5 27 40.5 51l164 -78c-28 -75.333 -65.167 -127.5 -111.5 -156.5s-95.166 -36.833 -146.499 -23.5c-16 4.66699 -35.167 13.167 -57.5 25.5s-41.5 22.5 -57.5 30.5s-33.333 13.667 -52 17s-36.334 -0.833984 -53.001 -12.501s-32.667 -31.834 -48 -60.501z
M285.001 504.001c0 -52.667 9.83203 -101 29.499 -145s50.834 -80.333 93.501 -109s93 -43 151 -43c86.667 0 154.167 29 202.5 87s72.5 128 72.5 210c0 80 -25.667 149.833 -77 209.5s-117.333 89.5 -198 89.5c-85.333 0 -152.333 -29.5 -201 -88.5
s-73 -129.167 -73 -210.5z" />
    <glyph glyph-name="odieresis" unicode="&#xf6;" horiz-adv-x="1175" 
d="M35 504c0 -98 20.499 -186.499 61.499 -265.499s101.833 -142.333 182.5 -190s174 -71.5 280 -71.5c106.667 0 200.334 23.833 281.001 71.5s141.667 111.167 183 190.5s62 167.666 62 264.999c0 96.667 -21.333 184.667 -64 264s-104.5 142.833 -185.5 190.5
s-173.833 71.5 -278.5 71.5s-197 -23.833 -277 -71.5s-140.833 -111.167 -182.5 -190.5s-62.5 -167.333 -62.5 -264zM204.999 1327c0 26 5.33008 49.167 15.9971 69.5s24.334 35.833 41.001 46.5s35.167 18.5 55.5 23.5s40.833 5 61.5 0s39.334 -12.833 56.001 -23.5
s30.334 -26.167 41.001 -46.5s16 -43.5 16 -69.5c0 -36 -9.83301 -66.167 -29.5 -90.5s-43.667 -39.333 -72 -45s-56.5 -5.66699 -84.5 0s-51.833 20.667 -71.5 45s-29.5 54.5 -29.5 90.5zM284.996 504.001c0 81.333 24.334 151.5 73.001 210.5s115.667 88.5 201 88.5
c80.667 0 146.667 -29.833 198 -89.5s77 -129.5 77 -209.5c0 -82 -24.167 -152 -72.5 -210s-115.833 -87 -202.5 -87c-58 0 -108.333 14.333 -151 43s-73.834 65 -93.501 109s-29.5 92.333 -29.5 145zM626.997 1327c0 30 7 56.167 21 78.5s31.667 38.5 53 48.5
s44.333 15 69 15s47.667 -5 69 -15s39 -26.167 53 -48.5s21 -48.5 21 -78.5c0 -44.667 -14.833 -79.5 -44.5 -104.5s-62.5 -37.5 -98.5 -37.5s-68.833 12.5 -98.5 37.5s-44.5 59.833 -44.5 104.5z" />
    <glyph glyph-name="divide" unicode="&#xf7;" horiz-adv-x="1060" 
d="M39 545h915v241h-915v-241zM354 281c0 26 5.33008 49.167 15.9971 69.5s24.334 35.833 41.001 46.5s35.334 18.5 56.001 23.5s41.167 5 61.5 0s38.833 -12.833 55.5 -23.5s30.334 -26.167 41.001 -46.5s16 -43.5 16 -69.5c0 -36 -9.83301 -66.167 -29.5 -90.5
s-43.667 -39.333 -72 -45s-56.5 -5.66699 -84.5 0s-51.833 20.667 -71.5 45s-29.5 54.5 -29.5 90.5zM353.997 1042c0 26 5.33008 49.167 15.9971 69.5s24.334 35.833 41.001 46.5s35.334 18.5 56.001 23.5s41.167 5 61.5 0s38.833 -12.833 55.5 -23.5
s30.334 -26.167 41.001 -46.5s16 -43.5 16 -69.5c0 -36 -9.83301 -66.167 -29.5 -90.5s-43.667 -39.333 -72 -45s-56.5 -5.66699 -84.5 0s-51.833 20.667 -71.5 45s-29.5 54.5 -29.5 90.5z" />
    <glyph glyph-name="oslash" unicode="&#xf8;" horiz-adv-x="1175" 
d="M35 504c0 96.667 20.834 184.666 62.501 263.999s102.5 142.833 182.5 190.5s172.333 71.5 277 71.5c60.667 0 120.667 -9.66699 180 -29l76 129h236l-136 -229c55.333 -48 97.833 -106.333 127.5 -175s44.5 -142.667 44.5 -222c0 -97.333 -20.667 -185.666 -62 -264.999
s-102.333 -142.833 -183 -190.5s-174.334 -71.5 -281.001 -71.5c-54 0 -112.667 8.33301 -176 25l-80 -135h-235l137 233c-55.333 47.333 -97.5 106 -126.5 176s-43.5 146 -43.5 228zM285.001 503.999c0 -72 17 -132.667 51 -182l280 475c-18 4 -37 6 -57 6
c-85.333 0 -152.333 -29.5 -201 -88.5s-73 -129.167 -73 -210.5zM506.001 210.999c10.667 -2.66699 28.333 -4 53 -4c86.667 0 154.167 29 202.5 87s72.5 128 72.5 210c0 62.667 -17.333 120.667 -52 174z" />
    <glyph glyph-name="ugrave" unicode="&#xf9;" horiz-adv-x="1232" 
d="M88 479l0.000976562 531.001h250v-529c0 -80 21.333 -145 64 -195s102.667 -75 180 -75c75.333 0 137.166 27.5 185.499 82.5s72.5 121.833 72.5 200.5v516h247v-1012h-223l-16 137c-53.333 -52.667 -106.5 -91 -159.5 -115s-113.833 -36 -182.5 -36
c-124 0 -224.667 44.167 -302 132.5s-116 209.166 -116 362.499zM287.001 1423v11h295l151 -279v-12h-221z" />
    <glyph glyph-name="uacute" unicode="&#xfa;" horiz-adv-x="1232" 
d="M88 479c0 -153.333 38.666 -274.167 115.999 -362.5s178 -132.5 302 -132.5c68.667 0 129.5 12 182.5 36s106.167 62.333 159.5 115l16 -137h223v1012h-247v-516c0 -78.667 -24.167 -145.5 -72.5 -200.5s-110.166 -82.5 -185.499 -82.5c-77.333 0 -137.333 25 -180 75
s-64 115 -64 195v529h-250v-531zM462.999 1143v12l151 279h295v-11l-225 -280h-221z" />
    <glyph glyph-name="ucircumflex" unicode="&#xfb;" horiz-adv-x="1232" 
d="M88 479l0.000976562 531.001h250v-529c0 -80 21.333 -145 64 -195s102.667 -75 180 -75c75.333 0 137.166 27.5 185.499 82.5s72.5 121.833 72.5 200.5v516h247v-1012h-223l-16 137c-53.333 -52.667 -106.5 -91 -159.5 -115s-113.833 -36 -182.5 -36
c-124 0 -224.667 44.167 -302 132.5s-116 209.166 -116 362.499zM236.001 1147v12l303 283h137l303 -283v-12h-254l-119 121l-117 -121h-253z" />
    <glyph glyph-name="udieresis" unicode="&#xfc;" horiz-adv-x="1232" 
d="M88 479c0 -153.333 38.666 -274.167 115.999 -362.5s178 -132.5 302 -132.5c68.667 0 129.5 12 182.5 36s106.167 62.333 159.5 115l16 -137h223v1012h-247v-516c0 -78.667 -24.167 -145.5 -72.5 -200.5s-110.166 -82.5 -185.499 -82.5c-77.333 0 -137.333 25 -180 75
s-64 115 -64 195v529h-250v-531zM198.999 1321c0 26 5.33203 49.167 15.999 69.5s24.334 35.833 41.001 46.5s35.167 18.5 55.5 23.5s40.666 5 60.999 0s38.833 -12.833 55.5 -23.5s30.334 -26.167 41.001 -46.5s16 -43.5 16 -69.5c0 -44.667 -14.833 -79.5 -44.5 -104.5
s-62.5 -37.5 -98.5 -37.5s-68.833 12.5 -98.5 37.5s-44.5 59.833 -44.5 104.5zM708.998 1321c0 30 7 56.167 21 78.5s31.667 38.5 53 48.5s44.333 15 69 15s47.667 -5 69 -15s39 -26.167 53 -48.5s21 -48.5 21 -78.5c0 -44.667 -14.833 -79.5 -44.5 -104.5
s-62.5 -37.5 -98.5 -37.5s-68.833 12.5 -98.5 37.5s-44.5 59.833 -44.5 104.5z" />
    <glyph glyph-name="yacute" unicode="&#xfd;" horiz-adv-x="1148" 
d="M-6 1010l403 -994l-188 -438h274l617 1432h-277l-184 -443l-104 -278l-97 284l-153 437h-291zM385 1145v12l152 279h294v-11l-225 -280h-221z" />
    <glyph glyph-name="thorn" unicode="&#xfe;" horiz-adv-x="1277" 
d="M82 -422l-0.000976562 1856h250v-562c32 50 79.5 89.167 142.5 117.5s125.5 42.5 187.5 42.5c100 0 188.333 -19.5 265 -58.5s137.667 -98.833 183 -179.5s68 -177.334 68 -290.001c0 -168.667 -47.167 -299 -141.5 -391s-217.833 -138 -370.5 -138
c-61.333 0 -123.166 13.167 -185.499 39.5s-111.833 67.166 -148.5 122.499v-559h-250zM353.999 504.002c0 -78.667 28 -146.167 84 -202.5s123.667 -84.5 203 -84.5c82 0 150.333 25.833 205 77.5s82 121.5 82 209.5s-27.333 157.833 -82 209.5s-123 77.5 -205 77.5
c-79.333 0 -147 -28.167 -203 -84.5s-84 -123.833 -84 -202.5z" />
    <glyph glyph-name="ydieresis" unicode="&#xff;" horiz-adv-x="1148" 
d="M-6 1010l403 -994l-188 -438h274l617 1432h-277l-184 -443l-104 -278l-97 284l-153 437h-291zM172 1305c0 26 5.33008 49.167 15.9971 69.5s24.334 35.833 41.001 46.5s35.167 18.5 55.5 23.5s40.833 5 61.5 0s39.334 -12.833 56.001 -23.5s30.334 -26.167 41.001 -46.5
s16 -43.5 16 -69.5c0 -36 -9.83301 -66.167 -29.5 -90.5s-43.5 -39.333 -71.5 -45s-56.167 -5.66699 -84.5 0s-52.333 20.667 -72 45s-29.5 54.5 -29.5 90.5zM681.997 1305c0 26 5.33008 49.167 15.9971 69.5s24.334 35.833 41.001 46.5s35.334 18.5 56.001 23.5
s41.167 5 61.5 0s38.833 -12.833 55.5 -23.5s30.334 -26.167 41.001 -46.5s16 -43.5 16 -69.5c0 -36 -9.83301 -66.167 -29.5 -90.5s-43.5 -39.333 -71.5 -45s-56.167 -5.66699 -84.5 0s-52.333 20.667 -72 45s-29.5 54.5 -29.5 90.5z" />
    <glyph glyph-name="OE" unicode="&#x152;" horiz-adv-x="2117" 
d="M92 725c0 107.333 15.5 205.5 46.5 294.5s76.333 166.5 136 232.5s136.167 117.5 229.5 154.5s199.666 55.5 318.999 55.5c80.667 0 159.334 -10.667 236.001 -32v4h936v-269h-686v-319h657v-256h-657v-320h686v-268h-936c-79.333 -22 -158 -33 -236 -33
c-120.667 0 -228.167 19.333 -322.5 58s-170.833 92.5 -229.5 161.5s-103.167 148.833 -133.5 239.5s-45.5 189.667 -45.5 297zM362 719c0 -66.667 9.83105 -130.5 29.498 -191.5s48.334 -116.167 86.001 -165.5s87 -88.833 148 -118.5s129.5 -44.5 205.5 -44.5
c92.667 0 168.667 13.667 228 41v950c-64 30 -142 45 -234 45c-76 0 -143.833 -13.333 -203.5 -40s-108.167 -63.5 -145.5 -110.5s-65.666 -101.5 -84.999 -163.5s-29 -129.333 -29 -202z" />
    <glyph glyph-name="oe" unicode="&#x153;" horiz-adv-x="1943" 
d="M39 504c0 96.667 20.835 184.835 62.502 264.502s102.5 143.5 182.5 191.5s172.333 72 277 72c84 0 161.167 -17.833 231.5 -53.5s124.833 -85.5 163.5 -149.5c31.333 61.333 81.666 111.166 150.999 149.499s147.333 57.5 234 57.5c174.667 0 308 -52.667 400 -158
s128.667 -259.333 110 -462h-782c8 -64.667 37.833 -116.667 89.5 -156s120.167 -59 205.5 -59c48.667 0 99 8.66699 151 26s91.667 40 119 68l160 -158c-50.667 -53.333 -115.334 -94 -194.001 -122s-158.667 -42 -240 -42c-94.667 0 -177.667 17.667 -249 53
s-127 86.666 -167 153.999c-92.667 -135.333 -219.667 -203 -381 -203c-106 0 -199.333 23.833 -280 71.5s-141.5 111 -182.5 190s-61.5 167.5 -61.5 265.5zM289.002 504.001c0 -52.667 9.83203 -101 29.499 -145s50.834 -80.333 93.501 -109s93 -43 151 -43
c86.667 0 154.167 29 202.5 87s72.5 128 72.5 210c0 80 -25.667 149.833 -77 209.5s-117.333 89.5 -198 89.5c-85.333 0 -152.333 -29.5 -201 -88.5s-73 -129.167 -73 -210.5zM1067 623.001h545c-8 64 -35.333 112.667 -82 146s-106.667 50 -180 50
c-69.333 0 -129.333 -16.667 -180 -50s-85 -82 -103 -146z" />
    <glyph glyph-name="Ydieresis" unicode="&#x178;" horiz-adv-x="1429" 
d="M18 1421l551 -829v-592h271v592l571 829v13h-326l-380 -592l-365 592h-322v-13zM307 1710c0 26 5.33008 49.167 15.9971 69.5s24.334 35.833 41.001 46.5s35.167 18.5 55.5 23.5s40.833 5 61.5 0s39.334 -12.833 56.001 -23.5s30.334 -26.167 41.001 -46.5
s16 -43.5 16 -69.5c0 -36 -9.83301 -66.167 -29.5 -90.5s-43.667 -39.333 -72 -45s-56.5 -5.66699 -84.5 0s-51.833 20.667 -71.5 45s-29.5 54.5 -29.5 90.5zM816.997 1710c0 26 5.33008 49.167 15.9971 69.5s24.334 35.833 41.001 46.5s35.167 18.5 55.5 23.5
s40.833 5 61.5 0s39.334 -12.833 56.001 -23.5s30.334 -26.167 41.001 -46.5s16 -43.5 16 -69.5c0 -36 -9.83301 -66.167 -29.5 -90.5s-43.667 -39.333 -72 -45s-56.5 -5.66699 -84.5 0s-51.833 20.667 -71.5 45s-29.5 54.5 -29.5 90.5z" />
    <glyph glyph-name="circumflex" unicode="&#x2c6;" horiz-adv-x="870" 
d="M45 1169v13l303 282h137l303 -282v-13h-253l-119 121l-117 -121h-254z" />
    <glyph glyph-name="tilde" unicode="&#x2dc;" horiz-adv-x="813" 
d="M57 1401c58.667 144.667 147 203.335 265 176.002c15.333 -4 34 -11.167 56 -21.5l57 -26c16 -7 32.833 -12.167 50.5 -15.5s34 0 49 10s28.5 27 40.5 51l164 -78c-28 -75.333 -65.167 -127.5 -111.5 -156.5s-95.166 -36.833 -146.499 -23.5
c-16 4.66699 -35.167 13.167 -57.5 25.5s-41.5 22.5 -57.5 30.5s-33.333 13.667 -52 17s-36.334 -0.833984 -53.001 -12.501s-32.667 -31.834 -48 -60.501z" />
    <glyph glyph-name="uni2000" unicode="&#x2000;" horiz-adv-x="944" 
 />
    <glyph glyph-name="uni2001" unicode="&#x2001;" horiz-adv-x="1888" 
 />
    <glyph glyph-name="uni2002" unicode="&#x2002;" horiz-adv-x="944" 
 />
    <glyph glyph-name="uni2003" unicode="&#x2003;" horiz-adv-x="1888" 
 />
    <glyph glyph-name="uni2004" unicode="&#x2004;" horiz-adv-x="629" 
 />
    <glyph glyph-name="uni2005" unicode="&#x2005;" horiz-adv-x="472" 
 />
    <glyph glyph-name="uni2006" unicode="&#x2006;" horiz-adv-x="314" 
 />
    <glyph glyph-name="uni2007" unicode="&#x2007;" horiz-adv-x="314" 
 />
    <glyph glyph-name="uni2008" unicode="&#x2008;" horiz-adv-x="236" 
 />
    <glyph glyph-name="uni2009" unicode="&#x2009;" horiz-adv-x="377" 
 />
    <glyph glyph-name="uni200A" unicode="&#x200a;" horiz-adv-x="104" 
 />
    <glyph glyph-name="uni2010" unicode="&#x2010;" horiz-adv-x="937" 
d="M72 553v229h755v-229h-755z" />
    <glyph glyph-name="uni2011" unicode="&#x2011;" horiz-adv-x="937" 
d="M72 553v229h755v-229h-755z" />
    <glyph glyph-name="figuredash" unicode="&#x2012;" horiz-adv-x="937" 
d="M72 553v229h755v-229h-755z" />
    <glyph glyph-name="endash" unicode="&#x2013;" horiz-adv-x="1116" 
d="M43 494v221h969v-221h-969z" />
    <glyph glyph-name="emdash" unicode="&#x2014;" horiz-adv-x="1275" 
d="M29 494v221h1165v-221h-1165z" />
    <glyph glyph-name="quoteleft" unicode="&#x2018;" horiz-adv-x="436" 
d="M29 975l159 461h197l-98 -461h-258z" />
    <glyph glyph-name="quoteright" unicode="&#x2019;" horiz-adv-x="413" 
d="M-4 973l98 461h258l-159 -461h-197z" />
    <glyph glyph-name="quotesinglbase" unicode="&#x201a;" horiz-adv-x="512" 
d="M51 113c0 36 9.99902 65.833 29.999 89.5s44.167 38 72.5 43s56.833 4.16699 85.5 -2.5s53 -22.334 73 -47.001s30 -54.667 30 -90c0 -12.667 -3.5 -30.667 -10.5 -54s-34.167 -107.666 -81.5 -252.999h-141l38 203c-29.333 5.33301 -52.666 17.5 -69.999 36.5
s-26 43.833 -26 74.5z" />
    <glyph glyph-name="quotedblleft" unicode="&#x201c;" horiz-adv-x="774" 
d="M12 971l160 461h197l-99 -461h-258zM358 971l160 461h197l-99 -461h-258z" />
    <glyph glyph-name="quotedblright" unicode="&#x201d;" horiz-adv-x="741" 
d="M-4 973l98 461h258l-159 -461h-197zM342 973l98 461h258l-159 -461h-197z" />
    <glyph glyph-name="quotedblbase" unicode="&#x201e;" horiz-adv-x="825" 
d="M51 113c0 36 9.99902 65.833 29.999 89.5s44.167 38 72.5 43s56.833 4.16699 85.5 -2.5s53 -22.334 73 -47.001s30 -54.667 30 -90c0 -12.667 -3.5 -30.667 -10.5 -54s-34.167 -107.666 -81.5 -252.999h-141l38 203c-29.333 5.33301 -52.666 17.5 -69.999 36.5
s-26 43.833 -26 74.5zM437.999 113c0 36 10 65.833 30 89.5s44.167 38 72.5 43s56.833 4.16699 85.5 -2.5s53 -22.334 73 -47.001s30 -54.667 30 -90c0 -12.667 -3.5 -30.667 -10.5 -54s-34.167 -107.666 -81.5 -252.999h-141l39 203
c-29.333 5.33301 -52.833 17.5 -70.5 36.5s-26.5 43.833 -26.5 74.5z" />
    <glyph glyph-name="bullet" unicode="&#x2022;" horiz-adv-x="729" 
d="M72 664c0 77.333 25.167 140.002 75.5 188.002s113.833 72 190.5 72c74.667 0 137 -24.167 187 -72.5s75 -110.833 75 -187.5s-25 -138.834 -75 -186.501s-112.333 -71.5 -187 -71.5c-77.333 0 -141 23.667 -191 71s-75 109.666 -75 186.999z" />
    <glyph glyph-name="ellipsis" unicode="&#x2026;" horiz-adv-x="1486" 
d="M76 129c0 26.667 5.5 50.5 16.5 71.5s25.167 37 42.5 48s36.333 19 57 24s41.5 5 62.5 0s40.167 -13 57.5 -24s31.5 -27 42.5 -48s16.5 -44.833 16.5 -71.5s-5.5 -50.5 -16.5 -71.5s-25.167 -37 -42.5 -48s-36.333 -19 -57 -24s-41.5 -5 -62.5 0s-40.167 13 -57.5 24
s-31.5 27 -42.5 48s-16.5 44.833 -16.5 71.5zM543 129c0 31.333 7.33301 58.333 22 81s32.834 39.167 54.501 49.5s45.334 15.5 71.001 15.5s49.334 -5.16699 71.001 -15.5s39.834 -26.833 54.501 -49.5s22 -49.667 22 -81s-7.33301 -58.333 -22 -81
s-32.834 -39.167 -54.501 -49.5s-45.334 -15.5 -71.001 -15.5s-49.334 5.16699 -71.001 15.5s-39.834 26.833 -54.501 49.5s-22 49.667 -22 81zM1010 129c0 31.333 7.33301 58.333 22 81s32.834 39.167 54.501 49.5s45.334 15.5 71.001 15.5s49.334 -5.16699 71.001 -15.5
s39.834 -26.833 54.501 -49.5s22 -49.667 22 -81s-7.33301 -58.333 -22 -81s-32.834 -39.167 -54.501 -49.5s-45.334 -15.5 -71.001 -15.5s-49.334 5.16699 -71.001 15.5s-39.834 26.833 -54.501 49.5s-22 49.667 -22 81z" />
    <glyph glyph-name="uni202F" unicode="&#x202f;" horiz-adv-x="377" 
 />
    <glyph glyph-name="guilsinglleft" unicode="&#x2039;" horiz-adv-x="663" 
d="M25 651l284 453h266l-282 -453l282 -454h-266z" />
    <glyph glyph-name="guilsinglright" unicode="&#x203a;" horiz-adv-x="716" 
d="M45 197l283 454l-283 453h266l285 -453l-285 -454h-266z" />
    <glyph glyph-name="uni205F" unicode="&#x205f;" horiz-adv-x="472" 
 />
    <glyph glyph-name="Euro" unicode="&#x20ac;" horiz-adv-x="1157" 
d="M25 461v197.999h110v48c0 27.333 0.666992 47.666 2 60.999h-112v201h145c44 150 124.667 269.667 242 359s271.333 134 462 134c81.333 0 155.333 -10.667 222 -32l-86 -242c-40 10.667 -85.333 16 -136 16c-102.667 0 -190 -21.333 -262 -64s-128 -99.667 -168 -171
h467l-45 -201h-483c-1.33301 -13.333 -2 -33.666 -2 -60.999c0 -22.667 0.666992 -38.667 2 -48h451l-41 -198h-355c37.333 -73.333 92.166 -131.666 164.499 -174.999s162.833 -65 271.5 -65c56.667 0 114.334 10.333 173.001 31l75 -250
c-77.333 -23.333 -160 -35 -248 -35c-102.667 0 -195 12.167 -277 36.5s-151.5 59 -208.5 104s-103.833 96.833 -140.5 155.5s-64.667 124.667 -84 198h-139z" />
    <glyph glyph-name="trademark" unicode="&#x2122;" horiz-adv-x="1511" 
d="M27 1272v164h585v-164h-196v-434h-195v434h-194zM678 838v600h205l161 -199l162 199h205v-600h-199v178l15 174l-164 -219h-41l-160 219l15 -174v-178h-199z" />
    <glyph glyph-name="uni25FC" unicode="&#x25fc;" horiz-adv-x="1013" 
d="M0 0v1014h1014v-1014h-1014z" />
    <glyph glyph-name="uniFB01" unicode="&#xfb01;" horiz-adv-x="1163" 
d="M-8 797v213.001h188v53c0 92 25.333 170.833 76 236.5s114.667 111.5 192 137.5s164 33.667 260 23s187 -41.334 273 -92.001l-92 -186c-72 44 -143.833 68.333 -215.5 73s-130.167 -10.333 -175.5 -45s-68 -83.667 -68 -147v-53h531v-1010h-250v797h-281v-797h-250v797
h-188z" />
    <glyph glyph-name="uniFB02" unicode="&#xfb02;" horiz-adv-x="1167" 
d="M-12 776v219.003h176v68c0 65.333 10.5 123.666 31.5 174.999s49.5 92.666 85.5 123.999s76.667 55.166 122 71.499s94 24.5 146 24.5c70 0 133 -7.33301 189 -22c75.333 -19.333 150.333 -51 225 -95v-1341h-248v1223c-45.333 24.667 -95.333 37 -150 37
c-44 0 -80.167 -17.833 -108.5 -53.5s-42.5 -83.5 -42.5 -143.5v-68h215v-219h-215v-776h-250v776h-176z" />
    <glyph glyph-name="glyph1" horiz-adv-x="0" 
 />
    </font>
</defs>
</svg>
